  0
SECTION
  2
BLOCKS
  0
ENDSEC
  0
SECTION
  2
ENTITIES
  0
LINE
  8
0
 10
230
 20
230
 11
0
 21
230
  0
LINE
  8
0
 10
0
 20
230
 11
0
 21
0
  0
LINE
  8
0
 10
0
 20
0
 11
230
 21
0
  0
LINE
  8
0
 10
230
 20
0
 11
230
 21
230
  0
LINE
  8
0
 10
96.0265
 20
135.374
 11
92.5395
 21
144.846
  0
LINE
  8
0
 10
92.5395
 20
144.846
 11
97.1735
 21
144.846
  0
LINE
  8
0
 10
97.1735
 20
144.846
 11
97.1735
 21
135.374
  0
LINE
  8
0
 10
97.1735
 20
135.374
 11
96.0265
 21
135.374
  0
LINE
  8
0
 10
116.568
 20
135.374
 11
116.568
 21
144.846
  0
LINE
  8
0
 10
116.568
 20
144.846
 11
119.32
 21
144.846
  0
LINE
  8
0
 10
119.32
 20
144.846
 11
119.291
 21
144.768
  0
LINE
  8
0
 10
119.291
 20
144.768
 11
119.259
 21
144.695
  0
LINE
  8
0
 10
119.259
 20
144.695
 11
119.227
 21
144.629
  0
LINE
  8
0
 10
119.227
 20
144.629
 11
119.192
 21
144.568
  0
LINE
  8
0
 10
119.192
 20
144.568
 11
119.157
 21
144.511
  0
LINE
  8
0
 10
119.157
 20
144.511
 11
119.119
 21
144.455
  0
LINE
  8
0
 10
119.119
 20
144.455
 11
119.079
 21
144.4
  0
LINE
  8
0
 10
119.079
 20
144.4
 11
118.81
 21
144.067
  0
LINE
  8
0
 10
118.81
 20
144.067
 11
118.764
 21
144.002
  0
LINE
  8
0
 10
118.764
 20
144.002
 11
118.718
 21
143.934
  0
LINE
  8
0
 10
118.718
 20
143.934
 11
118.671
 21
143.861
  0
LINE
  8
0
 10
118.671
 20
143.861
 11
118.434
 21
143.437
  0
LINE
  8
0
 10
118.434
 20
143.437
 11
118.243
 21
143.001
  0
LINE
  8
0
 10
118.243
 20
143.001
 11
118.098
 21
142.553
  0
LINE
  8
0
 10
118.098
 20
142.553
 11
117.999
 21
142.092
  0
LINE
  8
0
 10
117.999
 20
142.092
 11
117.933
 21
141.623
  0
LINE
  8
0
 10
117.933
 20
141.623
 11
117.886
 21
141.149
  0
LINE
  8
0
 10
117.886
 20
141.149
 11
117.858
 21
140.669
  0
LINE
  8
0
 10
117.858
 20
140.669
 11
117.848
 21
140.185
  0
LINE
  8
0
 10
117.848
 20
140.185
 11
117.855
 21
139.831
  0
LINE
  8
0
 10
117.855
 20
139.831
 11
117.874
 21
139.487
  0
LINE
  8
0
 10
117.874
 20
139.487
 11
117.907
 21
139.153
  0
LINE
  8
0
 10
117.907
 20
139.153
 11
117.952
 21
138.829
  0
LINE
  8
0
 10
117.952
 20
138.829
 11
118.012
 21
138.514
  0
LINE
  8
0
 10
118.012
 20
138.514
 11
118.086
 21
138.206
  0
LINE
  8
0
 10
118.086
 20
138.206
 11
118.175
 21
137.905
  0
LINE
  8
0
 10
118.175
 20
137.905
 11
118.277
 21
137.611
  0
LINE
  8
0
 10
118.277
 20
137.611
 11
118.395
 21
137.323
  0
LINE
  8
0
 10
118.395
 20
137.323
 11
118.528
 21
137.039
  0
LINE
  8
0
 10
118.528
 20
137.039
 11
118.676
 21
136.758
  0
LINE
  8
0
 10
118.676
 20
136.758
 11
118.839
 21
136.481
  0
LINE
  8
0
 10
118.839
 20
136.481
 11
119.019
 21
136.205
  0
LINE
  8
0
 10
119.019
 20
136.205
 11
119.215
 21
135.929
  0
LINE
  8
0
 10
119.215
 20
135.929
 11
119.427
 21
135.652
  0
LINE
  8
0
 10
119.427
 20
135.652
 11
119.656
 21
135.374
  0
LINE
  8
0
 10
119.656
 20
135.374
 11
116.568
 21
135.374
  0
LINE
  8
0
 10
100.14
 20
135.374
 11
100.14
 21
144.846
  0
LINE
  8
0
 10
100.14
 20
144.846
 11
101.42
 21
144.846
  0
LINE
  8
0
 10
101.42
 20
144.846
 11
101.42
 21
135.374
  0
LINE
  8
0
 10
101.42
 20
135.374
 11
100.14
 21
135.374
  0
LINE
  8
0
 10
111.414
 20
135.374
 11
111.504
 21
135.523
  0
LINE
  8
0
 10
111.504
 20
135.523
 11
111.671
 21
135.809
  0
LINE
  8
0
 10
111.671
 20
135.809
 11
111.749
 21
135.947
  0
LINE
  8
0
 10
111.749
 20
135.947
 11
111.822
 21
136.084
  0
LINE
  8
0
 10
111.822
 20
136.084
 11
111.889
 21
136.221
  0
LINE
  8
0
 10
111.889
 20
136.221
 11
111.952
 21
136.359
  0
LINE
  8
0
 10
111.952
 20
136.359
 11
112.01
 21
136.498
  0
LINE
  8
0
 10
112.01
 20
136.498
 11
112.061
 21
136.639
  0
LINE
  8
0
 10
112.061
 20
136.639
 11
112.107
 21
136.783
  0
LINE
  8
0
 10
112.107
 20
136.783
 11
112.145
 21
136.929
  0
LINE
  8
0
 10
112.145
 20
136.929
 11
112.178
 21
137.078
  0
LINE
  8
0
 10
112.178
 20
137.078
 11
112.203
 21
137.233
  0
LINE
  8
0
 10
112.203
 20
137.233
 11
112.221
 21
137.397
  0
LINE
  8
0
 10
112.221
 20
137.397
 11
112.232
 21
137.57
  0
LINE
  8
0
 10
112.232
 20
137.57
 11
112.236
 21
137.751
  0
LINE
  8
0
 10
112.236
 20
137.751
 11
112.228
 21
138.016
  0
LINE
  8
0
 10
112.228
 20
138.016
 11
112.205
 21
138.267
  0
LINE
  8
0
 10
112.205
 20
138.267
 11
112.166
 21
138.503
  0
LINE
  8
0
 10
112.166
 20
138.503
 11
112.112
 21
138.725
  0
LINE
  8
0
 10
112.112
 20
138.725
 11
112.042
 21
138.934
  0
LINE
  8
0
 10
112.042
 20
138.934
 11
111.954
 21
139.132
  0
LINE
  8
0
 10
111.954
 20
139.132
 11
111.85
 21
139.32
  0
LINE
  8
0
 10
111.85
 20
139.32
 11
111.729
 21
139.496
  0
LINE
  8
0
 10
111.729
 20
139.496
 11
111.59
 21
139.663
  0
LINE
  8
0
 10
111.59
 20
139.663
 11
111.435
 21
139.82
  0
LINE
  8
0
 10
111.435
 20
139.82
 11
111.263
 21
139.97
  0
LINE
  8
0
 10
111.263
 20
139.97
 11
111.075
 21
140.11
  0
LINE
  8
0
 10
111.075
 20
140.11
 11
110.873
 21
140.243
  0
LINE
  8
0
 10
110.873
 20
140.243
 11
110.661
 21
140.369
  0
LINE
  8
0
 10
110.661
 20
140.369
 11
110.439
 21
140.489
  0
LINE
  8
0
 10
110.439
 20
140.489
 11
110.207
 21
140.603
  0
LINE
  8
0
 10
110.207
 20
140.603
 11
110.377
 21
140.696
  0
LINE
  8
0
 10
110.377
 20
140.696
 11
110.542
 21
140.8
  0
LINE
  8
0
 10
110.542
 20
140.8
 11
110.701
 21
140.916
  0
LINE
  8
0
 10
110.701
 20
140.916
 11
110.855
 21
141.043
  0
LINE
  8
0
 10
110.855
 20
141.043
 11
111.001
 21
141.18
  0
LINE
  8
0
 10
111.001
 20
141.18
 11
111.136
 21
141.326
  0
LINE
  8
0
 10
111.136
 20
141.326
 11
111.262
 21
141.479
  0
LINE
  8
0
 10
111.262
 20
141.479
 11
111.377
 21
141.64
  0
LINE
  8
0
 10
111.377
 20
141.64
 11
111.481
 21
141.808
  0
LINE
  8
0
 10
111.481
 20
141.808
 11
111.573
 21
141.982
  0
LINE
  8
0
 10
111.573
 20
141.982
 11
111.654
 21
142.162
  0
LINE
  8
0
 10
111.654
 20
142.162
 11
111.724
 21
142.347
  0
LINE
  8
0
 10
111.724
 20
142.347
 11
111.78
 21
142.537
  0
LINE
  8
0
 10
111.78
 20
142.537
 11
111.82
 21
142.731
  0
LINE
  8
0
 10
111.82
 20
142.731
 11
111.844
 21
142.929
  0
LINE
  8
0
 10
111.844
 20
142.929
 11
111.852
 21
143.13
  0
LINE
  8
0
 10
111.852
 20
143.13
 11
111.82
 21
143.589
  0
LINE
  8
0
 10
111.82
 20
143.589
 11
111.727
 21
144.028
  0
LINE
  8
0
 10
111.727
 20
144.028
 11
111.571
 21
144.447
  0
LINE
  8
0
 10
111.571
 20
144.447
 11
111.353
 21
144.846
  0
LINE
  8
0
 10
111.353
 20
144.846
 11
113.516
 21
144.846
  0
LINE
  8
0
 10
113.516
 20
144.846
 11
113.516
 21
135.374
  0
LINE
  8
0
 10
113.516
 20
135.374
 11
111.414
 21
135.374
  0
LINE
  8
0
 10
133.313
 20
135.374
 11
133.313
 21
144.846
  0
LINE
  8
0
 10
133.313
 20
144.846
 11
134.785
 21
144.846
  0
LINE
  8
0
 10
134.785
 20
144.846
 11
134.785
 21
135.374
  0
LINE
  8
0
 10
134.785
 20
135.374
 11
133.313
 21
135.374
  0
LINE
  8
0
 10
143.73
 20
135.374
 11
143.97
 21
135.651
  0
LINE
  8
0
 10
143.97
 20
135.651
 11
144.189
 21
135.926
  0
LINE
  8
0
 10
144.189
 20
135.926
 11
144.39
 21
136.198
  0
LINE
  8
0
 10
144.39
 20
136.198
 11
144.57
 21
136.469
  0
LINE
  8
0
 10
144.57
 20
136.469
 11
144.733
 21
136.741
  0
LINE
  8
0
 10
144.733
 20
136.741
 11
144.88
 21
137.017
  0
LINE
  8
0
 10
144.88
 20
137.017
 11
145.011
 21
137.298
  0
LINE
  8
0
 10
145.011
 20
137.298
 11
145.126
 21
137.582
  0
LINE
  8
0
 10
145.126
 20
137.582
 11
145.226
 21
137.873
  0
LINE
  8
0
 10
145.226
 20
137.873
 11
145.311
 21
138.173
  0
LINE
  8
0
 10
145.311
 20
138.173
 11
145.382
 21
138.482
  0
LINE
  8
0
 10
145.382
 20
138.482
 11
145.438
 21
138.799
  0
LINE
  8
0
 10
145.438
 20
138.799
 11
145.482
 21
139.128
  0
LINE
  8
0
 10
145.482
 20
139.128
 11
145.513
 21
139.471
  0
LINE
  8
0
 10
145.513
 20
139.471
 11
145.531
 21
139.827
  0
LINE
  8
0
 10
145.531
 20
139.827
 11
145.537
 21
140.197
  0
LINE
  8
0
 10
145.537
 20
140.197
 11
145.516
 21
140.846
  0
LINE
  8
0
 10
145.516
 20
140.846
 11
145.45
 21
141.471
  0
LINE
  8
0
 10
145.45
 20
141.471
 11
145.342
 21
142.072
  0
LINE
  8
0
 10
145.342
 20
142.072
 11
145.189
 21
142.649
  0
LINE
  8
0
 10
145.189
 20
142.649
 11
144.988
 21
143.21
  0
LINE
  8
0
 10
144.988
 20
143.21
 11
144.732
 21
143.763
  0
LINE
  8
0
 10
144.732
 20
143.763
 11
144.421
 21
144.309
  0
LINE
  8
0
 10
144.421
 20
144.309
 11
144.055
 21
144.846
  0
LINE
  8
0
 10
144.055
 20
144.846
 11
147.009
 21
144.846
  0
LINE
  8
0
 10
147.009
 20
144.846
 11
147.009
 21
135.374
  0
LINE
  8
0
 10
147.009
 20
135.374
 11
143.73
 21
135.374
  0
LINE
  8
0
 10
83.1685
 20
135.374
 11
83.1685
 21
144.846
  0
LINE
  8
0
 10
83.1685
 20
144.846
 11
87.5475
 21
144.846
  0
LINE
  8
0
 10
87.5475
 20
144.846
 11
84.0025
 21
135.374
  0
LINE
  8
0
 10
84.0025
 20
135.374
 11
83.1685
 21
135.374
  0
LINE
  8
0
 10
127.675
 20
135.374
 11
128.087
 21
135.918
  0
LINE
  8
0
 10
128.087
 20
135.918
 11
128.199
 21
136.071
  0
LINE
  8
0
 10
128.199
 20
136.071
 11
128.307
 21
136.227
  0
LINE
  8
0
 10
128.307
 20
136.227
 11
128.413
 21
136.387
  0
LINE
  8
0
 10
128.413
 20
136.387
 11
128.515
 21
136.55
  0
LINE
  8
0
 10
128.515
 20
136.55
 11
128.612
 21
136.716
  0
LINE
  8
0
 10
128.612
 20
136.716
 11
128.701
 21
136.884
  0
LINE
  8
0
 10
128.701
 20
136.884
 11
128.78
 21
137.053
  0
LINE
  8
0
 10
128.78
 20
137.053
 11
128.851
 21
137.223
  0
LINE
  8
0
 10
128.851
 20
137.223
 11
128.91
 21
137.394
  0
LINE
  8
0
 10
128.91
 20
137.394
 11
128.951
 21
137.564
  0
LINE
  8
0
 10
128.951
 20
137.564
 11
128.976
 21
137.733
  0
LINE
  8
0
 10
128.976
 20
137.733
 11
128.984
 21
137.901
  0
LINE
  8
0
 10
128.984
 20
137.901
 11
128.984
 21
137.955
  0
LINE
  8
0
 10
128.984
 20
137.955
 11
128.977
 21
138.139
  0
LINE
  8
0
 10
128.977
 20
138.139
 11
128.962
 21
138.199
  0
LINE
  8
0
 10
128.962
 20
138.199
 11
128.925
 21
138.247
  0
LINE
  8
0
 10
128.925
 20
138.247
 11
128.864
 21
138.283
  0
LINE
  8
0
 10
128.864
 20
138.283
 11
128.781
 21
138.307
  0
LINE
  8
0
 10
128.781
 20
138.307
 11
128.705
 21
138.334
  0
LINE
  8
0
 10
128.705
 20
138.334
 11
128.479
 21
138.406
  0
LINE
  8
0
 10
128.479
 20
138.406
 11
127.82
 21
138.603
  0
LINE
  8
0
 10
127.82
 20
138.603
 11
127.285
 21
138.755
  0
LINE
  8
0
 10
127.285
 20
138.755
 11
126.499
 21
138.968
  0
LINE
  8
0
 10
126.499
 20
138.968
 11
126.255
 21
138.98
  0
LINE
  8
0
 10
126.255
 20
138.98
 11
126.15
 21
138.971
  0
LINE
  8
0
 10
126.15
 20
138.971
 11
126.053
 21
138.944
  0
LINE
  8
0
 10
126.053
 20
138.944
 11
125.964
 21
138.898
  0
LINE
  8
0
 10
125.964
 20
138.898
 11
125.884
 21
138.835
  0
LINE
  8
0
 10
125.884
 20
138.835
 11
125.81
 21
138.757
  0
LINE
  8
0
 10
125.81
 20
138.757
 11
125.737
 21
138.67
  0
LINE
  8
0
 10
125.737
 20
138.67
 11
125.666
 21
138.572
  0
LINE
  8
0
 10
125.666
 20
138.572
 11
125.595
 21
138.464
  0
LINE
  8
0
 10
125.595
 20
138.464
 11
125.299
 21
137.983
  0
LINE
  8
0
 10
125.299
 20
137.983
 11
125.217
 21
137.857
  0
LINE
  8
0
 10
125.217
 20
137.857
 11
125.127
 21
137.735
  0
LINE
  8
0
 10
125.127
 20
137.735
 11
125.029
 21
137.616
  0
LINE
  8
0
 10
125.029
 20
137.616
 11
124.923
 21
137.501
  0
LINE
  8
0
 10
124.923
 20
137.501
 11
124.807
 21
137.393
  0
LINE
  8
0
 10
124.807
 20
137.393
 11
124.679
 21
137.295
  0
LINE
  8
0
 10
124.679
 20
137.295
 11
124.538
 21
137.208
  0
LINE
  8
0
 10
124.538
 20
137.208
 11
124.384
 21
137.13
  0
LINE
  8
0
 10
124.384
 20
137.13
 11
124.216
 21
137.067
  0
LINE
  8
0
 10
124.216
 20
137.067
 11
124.03
 21
137.022
  0
LINE
  8
0
 10
124.03
 20
137.022
 11
123.826
 21
136.995
  0
LINE
  8
0
 10
123.826
 20
136.995
 11
123.603
 21
136.986
  0
LINE
  8
0
 10
123.603
 20
136.986
 11
123.277
 21
137.005
  0
LINE
  8
0
 10
123.277
 20
137.005
 11
122.983
 21
137.063
  0
LINE
  8
0
 10
122.983
 20
137.063
 11
122.721
 21
137.159
  0
LINE
  8
0
 10
122.721
 20
137.159
 11
122.49
 21
137.293
  0
LINE
  8
0
 10
122.49
 20
137.293
 11
122.289
 21
137.457
  0
LINE
  8
0
 10
122.289
 20
137.457
 11
122.111
 21
137.642
  0
LINE
  8
0
 10
122.111
 20
137.642
 11
121.959
 21
137.848
  0
LINE
  8
0
 10
121.959
 20
137.848
 11
121.83
 21
138.075
  0
LINE
  8
0
 10
121.83
 20
138.075
 11
121.724
 21
138.319
  0
LINE
  8
0
 10
121.724
 20
138.319
 11
121.637
 21
138.577
  0
LINE
  8
0
 10
121.637
 20
138.577
 11
121.568
 21
138.847
  0
LINE
  8
0
 10
121.568
 20
138.847
 11
121.517
 21
139.13
  0
LINE
  8
0
 10
121.517
 20
139.13
 11
121.482
 21
139.419
  0
LINE
  8
0
 10
121.482
 20
139.419
 11
121.457
 21
139.704
  0
LINE
  8
0
 10
121.457
 20
139.704
 11
121.441
 21
139.987
  0
LINE
  8
0
 10
121.441
 20
139.987
 11
121.436
 21
140.267
  0
LINE
  8
0
 10
121.436
 20
140.267
 11
121.444
 21
140.557
  0
LINE
  8
0
 10
121.444
 20
140.557
 11
121.465
 21
140.847
  0
LINE
  8
0
 10
121.465
 20
140.847
 11
121.502
 21
141.139
  0
LINE
  8
0
 10
121.502
 20
141.139
 11
121.552
 21
141.431
  0
LINE
  8
0
 10
121.552
 20
141.431
 11
121.62
 21
141.717
  0
LINE
  8
0
 10
121.62
 20
141.717
 11
121.707
 21
141.988
  0
LINE
  8
0
 10
121.707
 20
141.988
 11
121.814
 21
142.244
  0
LINE
  8
0
 10
121.814
 20
142.244
 11
121.94
 21
142.486
  0
LINE
  8
0
 10
121.94
 20
142.486
 11
122.088
 21
142.71
  0
LINE
  8
0
 10
122.088
 20
142.71
 11
122.259
 21
142.912
  0
LINE
  8
0
 10
122.259
 20
142.912
 11
122.453
 21
143.093
  0
LINE
  8
0
 10
122.453
 20
143.093
 11
122.67
 21
143.252
  0
LINE
  8
0
 10
122.67
 20
143.252
 11
122.913
 21
143.381
  0
LINE
  8
0
 10
122.913
 20
143.381
 11
123.185
 21
143.474
  0
LINE
  8
0
 10
123.185
 20
143.474
 11
123.484
 21
143.529
  0
LINE
  8
0
 10
123.484
 20
143.529
 11
123.811
 21
143.548
  0
LINE
  8
0
 10
123.811
 20
143.548
 11
124.029
 21
143.533
  0
LINE
  8
0
 10
124.029
 20
143.533
 11
124.231
 21
143.49
  0
LINE
  8
0
 10
124.231
 20
143.49
 11
124.417
 21
143.417
  0
LINE
  8
0
 10
124.417
 20
143.417
 11
124.587
 21
143.316
  0
LINE
  8
0
 10
124.587
 20
143.316
 11
124.746
 21
143.197
  0
LINE
  8
0
 10
124.746
 20
143.197
 11
124.896
 21
143.071
  0
LINE
  8
0
 10
124.896
 20
143.071
 11
125.038
 21
142.939
  0
LINE
  8
0
 10
125.038
 20
142.939
 11
125.172
 21
142.8
  0
LINE
  8
0
 10
125.172
 20
142.8
 11
125.425
 21
142.529
  0
LINE
  8
0
 10
125.425
 20
142.529
 11
125.659
 21
142.284
  0
LINE
  8
0
 10
125.659
 20
142.284
 11
125.774
 21
142.182
  0
LINE
  8
0
 10
125.774
 20
142.182
 11
125.893
 21
142.11
  0
LINE
  8
0
 10
125.893
 20
142.11
 11
126.015
 21
142.066
  0
LINE
  8
0
 10
126.015
 20
142.066
 11
126.14
 21
142.052
  0
LINE
  8
0
 10
126.14
 20
142.052
 11
126.293
 21
142.055
  0
LINE
  8
0
 10
126.293
 20
142.055
 11
126.451
 21
142.065
  0
LINE
  8
0
 10
126.451
 20
142.065
 11
126.614
 21
142.081
  0
LINE
  8
0
 10
126.614
 20
142.081
 11
126.782
 21
142.104
  0
LINE
  8
0
 10
126.782
 20
142.104
 11
126.953
 21
142.132
  0
LINE
  8
0
 10
126.953
 20
142.132
 11
127.123
 21
142.163
  0
LINE
  8
0
 10
127.123
 20
142.163
 11
127.292
 21
142.198
  0
LINE
  8
0
 10
127.292
 20
142.198
 11
127.46
 21
142.237
  0
LINE
  8
0
 10
127.46
 20
142.237
 11
127.626
 21
142.278
  0
LINE
  8
0
 10
127.626
 20
142.278
 11
127.945
 21
142.362
  0
LINE
  8
0
 10
127.945
 20
142.362
 11
128.243
 21
142.447
  0
LINE
  8
0
 10
128.243
 20
142.447
 11
128.619
 21
142.562
  0
LINE
  8
0
 10
128.619
 20
142.562
 11
128.676
 21
142.587
  0
LINE
  8
0
 10
128.676
 20
142.587
 11
128.72
 21
142.617
  0
LINE
  8
0
 10
128.72
 20
142.617
 11
128.751
 21
142.651
  0
LINE
  8
0
 10
128.751
 20
142.651
 11
128.769
 21
142.689
  0
LINE
  8
0
 10
128.769
 20
142.689
 11
128.779
 21
142.731
  0
LINE
  8
0
 10
128.779
 20
142.731
 11
128.787
 21
142.776
  0
LINE
  8
0
 10
128.787
 20
142.776
 11
128.791
 21
142.824
  0
LINE
  8
0
 10
128.791
 20
142.824
 11
128.792
 21
142.875
  0
LINE
  8
0
 10
128.792
 20
142.875
 11
128.785
 21
143.004
  0
LINE
  8
0
 10
128.785
 20
143.004
 11
128.763
 21
143.137
  0
LINE
  8
0
 10
128.763
 20
143.137
 11
128.727
 21
143.274
  0
LINE
  8
0
 10
128.727
 20
143.274
 11
128.676
 21
143.414
  0
LINE
  8
0
 10
128.676
 20
143.414
 11
128.616
 21
143.555
  0
LINE
  8
0
 10
128.616
 20
143.555
 11
128.551
 21
143.692
  0
LINE
  8
0
 10
128.551
 20
143.692
 11
128.48
 21
143.827
  0
LINE
  8
0
 10
128.48
 20
143.827
 11
128.404
 21
143.959
  0
LINE
  8
0
 10
128.404
 20
143.959
 11
128.326
 21
144.088
  0
LINE
  8
0
 10
128.326
 20
144.088
 11
128.245
 21
144.213
  0
LINE
  8
0
 10
128.245
 20
144.213
 11
128.164
 21
144.334
  0
LINE
  8
0
 10
128.164
 20
144.334
 11
127.928
 21
144.666
  0
LINE
  8
0
 10
127.928
 20
144.666
 11
127.808
 21
144.846
  0
LINE
  8
0
 10
127.808
 20
144.846
 11
130.456
 21
144.846
  0
LINE
  8
0
 10
130.456
 20
144.846
 11
130.456
 21
135.374
  0
LINE
  8
0
 10
130.456
 20
135.374
 11
127.675
 21
135.374
  0
LINE
  8
0
 10
105.202
 20
141.582
 11
105.202
 21
143.566
  0
LINE
  8
0
 10
105.202
 20
143.566
 11
107.484
 21
143.566
  0
LINE
  8
0
 10
107.484
 20
143.566
 11
107.568
 21
143.559
  0
LINE
  8
0
 10
107.568
 20
143.559
 11
107.646
 21
143.539
  0
LINE
  8
0
 10
107.646
 20
143.539
 11
107.718
 21
143.506
  0
LINE
  8
0
 10
107.718
 20
143.506
 11
107.785
 21
143.46
  0
LINE
  8
0
 10
107.785
 20
143.46
 11
107.846
 21
143.404
  0
LINE
  8
0
 10
107.846
 20
143.404
 11
107.901
 21
143.343
  0
LINE
  8
0
 10
107.901
 20
143.343
 11
107.95
 21
143.275
  0
LINE
  8
0
 10
107.95
 20
143.275
 11
107.994
 21
143.202
  0
LINE
  8
0
 10
107.994
 20
143.202
 11
108.031
 21
143.124
  0
LINE
  8
0
 10
108.031
 20
143.124
 11
108.063
 21
143.045
  0
LINE
  8
0
 10
108.063
 20
143.045
 11
108.089
 21
142.963
  0
LINE
  8
0
 10
108.089
 20
142.963
 11
108.11
 21
142.879
  0
LINE
  8
0
 10
108.11
 20
142.879
 11
108.125
 21
142.797
  0
LINE
  8
0
 10
108.125
 20
142.797
 11
108.136
 21
142.719
  0
LINE
  8
0
 10
108.136
 20
142.719
 11
108.142
 21
142.647
  0
LINE
  8
0
 10
108.142
 20
142.647
 11
108.145
 21
142.58
  0
LINE
  8
0
 10
108.145
 20
142.58
 11
108.143
 21
142.508
  0
LINE
  8
0
 10
108.143
 20
142.508
 11
108.137
 21
142.432
  0
LINE
  8
0
 10
108.137
 20
142.432
 11
108.128
 21
142.352
  0
LINE
  8
0
 10
108.128
 20
142.352
 11
108.116
 21
142.269
  0
LINE
  8
0
 10
108.116
 20
142.269
 11
108.098
 21
142.185
  0
LINE
  8
0
 10
108.098
 20
142.185
 11
108.073
 21
142.103
  0
LINE
  8
0
 10
108.073
 20
142.103
 11
108.042
 21
142.024
  0
LINE
  8
0
 10
108.042
 20
142.024
 11
108.005
 21
141.946
  0
LINE
  8
0
 10
108.005
 20
141.946
 11
107.961
 21
141.872
  0
LINE
  8
0
 10
107.961
 20
141.872
 11
107.912
 21
141.805
  0
LINE
  8
0
 10
107.912
 20
141.805
 11
107.857
 21
141.743
  0
LINE
  8
0
 10
107.857
 20
141.743
 11
107.797
 21
141.687
  0
LINE
  8
0
 10
107.797
 20
141.687
 11
107.729
 21
141.641
  0
LINE
  8
0
 10
107.729
 20
141.641
 11
107.655
 21
141.608
  0
LINE
  8
0
 10
107.655
 20
141.608
 11
107.573
 21
141.589
  0
LINE
  8
0
 10
107.573
 20
141.589
 11
107.484
 21
141.582
  0
LINE
  8
0
 10
107.484
 20
141.582
 11
105.202
 21
141.582
  0
LINE
  8
0
 10
139.151
 20
137.147
 11
138.983
 21
137.153
  0
LINE
  8
0
 10
138.983
 20
137.153
 11
138.7
 21
137.17
  0
LINE
  8
0
 10
138.7
 20
137.17
 11
138.537
 21
137.332
  0
LINE
  8
0
 10
138.537
 20
137.332
 11
138.537
 21
143.205
  0
LINE
  8
0
 10
138.537
 20
143.205
 11
140.495
 21
143.205
  0
LINE
  8
0
 10
140.495
 20
143.205
 11
140.606
 21
143.195
  0
LINE
  8
0
 10
140.606
 20
143.195
 11
140.718
 21
143.166
  0
LINE
  8
0
 10
140.718
 20
143.166
 11
140.832
 21
143.117
  0
LINE
  8
0
 10
140.832
 20
143.117
 11
140.947
 21
143.048
  0
LINE
  8
0
 10
140.947
 20
143.048
 11
141.06
 21
142.966
  0
LINE
  8
0
 10
141.06
 20
142.966
 11
141.168
 21
142.874
  0
LINE
  8
0
 10
141.168
 20
142.874
 11
141.269
 21
142.775
  0
LINE
  8
0
 10
141.269
 20
142.775
 11
141.364
 21
142.666
  0
LINE
  8
0
 10
141.364
 20
142.666
 11
141.453
 21
142.551
  0
LINE
  8
0
 10
141.453
 20
142.551
 11
141.533
 21
142.433
  0
LINE
  8
0
 10
141.533
 20
142.433
 11
141.606
 21
142.311
  0
LINE
  8
0
 10
141.606
 20
142.311
 11
141.67
 21
142.185
  0
LINE
  8
0
 10
141.67
 20
142.185
 11
141.724
 21
142.062
  0
LINE
  8
0
 10
141.724
 20
142.062
 11
141.762
 21
141.945
  0
LINE
  8
0
 10
141.762
 20
141.945
 11
141.785
 21
141.836
  0
LINE
  8
0
 10
141.785
 20
141.836
 11
141.792
 21
141.734
  0
LINE
  8
0
 10
141.792
 20
141.734
 11
141.792
 21
138.641
  0
LINE
  8
0
 10
141.792
 20
138.641
 11
141.778
 21
138.405
  0
LINE
  8
0
 10
141.778
 20
138.405
 11
141.733
 21
138.193
  0
LINE
  8
0
 10
141.733
 20
138.193
 11
141.659
 21
138.008
  0
LINE
  8
0
 10
141.659
 20
138.008
 11
141.555
 21
137.847
  0
LINE
  8
0
 10
141.555
 20
137.847
 11
141.429
 21
137.708
  0
LINE
  8
0
 10
141.429
 20
137.708
 11
141.288
 21
137.587
  0
LINE
  8
0
 10
141.288
 20
137.587
 11
141.131
 21
137.482
  0
LINE
  8
0
 10
141.131
 20
137.482
 11
140.958
 21
137.395
  0
LINE
  8
0
 10
140.958
 20
137.395
 11
140.776
 21
137.324
  0
LINE
  8
0
 10
140.776
 20
137.324
 11
140.586
 21
137.266
  0
LINE
  8
0
 10
140.586
 20
137.266
 11
140.391
 21
137.222
  0
LINE
  8
0
 10
140.391
 20
137.222
 11
140.188
 21
137.192
  0
LINE
  8
0
 10
140.188
 20
137.192
 11
139.986
 21
137.172
  0
LINE
  8
0
 10
139.986
 20
137.172
 11
139.79
 21
137.158
  0
LINE
  8
0
 10
139.79
 20
137.158
 11
139.601
 21
137.149
  0
LINE
  8
0
 10
139.601
 20
137.149
 11
139.418
 21
137.146
  0
LINE
  8
0
 10
139.418
 20
137.146
 11
139.151
 21
137.147
  0
LINE
  8
0
 10
88.7515
 20
138.965
 11
89.8295
 21
142.556
  0
LINE
  8
0
 10
89.8295
 20
142.556
 11
90.1185
 21
142.544
  0
LINE
  8
0
 10
90.1185
 20
142.544
 11
91.1845
 21
138.965
  0
LINE
  8
0
 10
91.1845
 20
138.965
 11
88.7515
 21
138.965
  0
LINE
  8
0
 10
105.202
 20
137.038
 11
105.202
 21
138.967
  0
LINE
  8
0
 10
105.202
 20
138.967
 11
105.364
 21
139.127
  0
LINE
  8
0
 10
105.364
 20
139.127
 11
105.724
 21
139.143
  0
LINE
  8
0
 10
105.724
 20
139.143
 11
105.935
 21
139.149
  0
LINE
  8
0
 10
105.935
 20
139.149
 11
106.457
 21
139.15
  0
LINE
  8
0
 10
106.457
 20
139.15
 11
107.032
 21
139.156
  0
LINE
  8
0
 10
107.032
 20
139.156
 11
107.231
 21
139.153
  0
LINE
  8
0
 10
107.231
 20
139.153
 11
107.424
 21
139.137
  0
LINE
  8
0
 10
107.424
 20
139.137
 11
107.611
 21
139.11
  0
LINE
  8
0
 10
107.611
 20
139.11
 11
107.791
 21
139.07
  0
LINE
  8
0
 10
107.791
 20
139.07
 11
107.96
 21
139.015
  0
LINE
  8
0
 10
107.96
 20
139.015
 11
108.115
 21
138.94
  0
LINE
  8
0
 10
108.115
 20
138.94
 11
108.256
 21
138.846
  0
LINE
  8
0
 10
108.256
 20
138.846
 11
108.382
 21
138.733
  0
LINE
  8
0
 10
108.382
 20
138.733
 11
108.485
 21
138.595
  0
LINE
  8
0
 10
108.485
 20
138.595
 11
108.559
 21
138.426
  0
LINE
  8
0
 10
108.559
 20
138.426
 11
108.604
 21
138.227
  0
LINE
  8
0
 10
108.604
 20
138.227
 11
108.619
 21
137.997
  0
LINE
  8
0
 10
108.619
 20
137.997
 11
108.614
 21
137.932
  0
LINE
  8
0
 10
108.614
 20
137.932
 11
108.601
 21
137.861
  0
LINE
  8
0
 10
108.601
 20
137.861
 11
108.579
 21
137.786
  0
LINE
  8
0
 10
108.579
 20
137.786
 11
108.549
 21
137.705
  0
LINE
  8
0
 10
108.549
 20
137.705
 11
108.511
 21
137.624
  0
LINE
  8
0
 10
108.511
 20
137.624
 11
108.468
 21
137.544
  0
LINE
  8
0
 10
108.468
 20
137.544
 11
108.419
 21
137.467
  0
LINE
  8
0
 10
108.419
 20
137.467
 11
108.364
 21
137.391
  0
LINE
  8
0
 10
108.364
 20
137.391
 11
108.304
 21
137.32
  0
LINE
  8
0
 10
108.304
 20
137.32
 11
108.241
 21
137.254
  0
LINE
  8
0
 10
108.241
 20
137.254
 11
108.174
 21
137.194
  0
LINE
  8
0
 10
108.174
 20
137.194
 11
108.104
 21
137.14
  0
LINE
  8
0
 10
108.104
 20
137.14
 11
108.031
 21
137.095
  0
LINE
  8
0
 10
108.031
 20
137.095
 11
107.957
 21
137.064
  0
LINE
  8
0
 10
107.957
 20
137.064
 11
107.883
 21
137.044
  0
LINE
  8
0
 10
107.883
 20
137.044
 11
107.809
 21
137.038
  0
LINE
  8
0
 10
107.809
 20
137.038
 11
105.202
 21
137.038
  0
LINE
  8
0
 10
87.6975
 20
135.374
 11
87.7017
 21
135.462
  0
LINE
  8
0
 10
87.7017
 20
135.462
 11
87.7145
 21
135.582
  0
LINE
  8
0
 10
87.7145
 20
135.582
 11
87.7249
 21
135.651
  0
LINE
  8
0
 10
87.7249
 20
135.651
 11
87.738
 21
135.72
  0
LINE
  8
0
 10
87.738
 20
135.72
 11
87.7539
 21
135.79
  0
LINE
  8
0
 10
87.7539
 20
135.79
 11
87.7725
 21
135.861
  0
LINE
  8
0
 10
87.7725
 20
135.861
 11
87.7944
 21
135.93
  0
LINE
  8
0
 10
87.7944
 20
135.93
 11
87.8192
 21
135.993
  0
LINE
  8
0
 10
87.8192
 20
135.993
 11
87.8469
 21
136.052
  0
LINE
  8
0
 10
87.8469
 20
136.052
 11
87.8775
 21
136.105
  0
LINE
  8
0
 10
87.8775
 20
136.105
 11
87.9112
 21
136.149
  0
LINE
  8
0
 10
87.9112
 20
136.149
 11
87.9485
 21
136.181
  0
LINE
  8
0
 10
87.9485
 20
136.181
 11
87.9892
 21
136.2
  0
LINE
  8
0
 10
87.9892
 20
136.2
 11
88.0335
 21
136.206
  0
LINE
  8
0
 10
88.0335
 20
136.206
 11
91.7865
 21
136.206
  0
LINE
  8
0
 10
91.7865
 20
136.206
 11
91.8378
 21
136.199
  0
LINE
  8
0
 10
91.8378
 20
136.199
 11
91.887
 21
136.178
  0
LINE
  8
0
 10
91.887
 20
136.178
 11
91.9338
 21
136.142
  0
LINE
  8
0
 10
91.9338
 20
136.142
 11
91.9785
 21
136.093
  0
LINE
  8
0
 10
91.9785
 20
136.093
 11
92.0205
 21
136.035
  0
LINE
  8
0
 10
92.0205
 20
136.035
 11
92.0595
 21
135.973
  0
LINE
  8
0
 10
92.0595
 20
135.973
 11
92.0955
 21
135.907
  0
LINE
  8
0
 10
92.0955
 20
135.907
 11
92.1285
 21
135.837
  0
LINE
  8
0
 10
92.1285
 20
135.837
 11
92.159
 21
135.766
  0
LINE
  8
0
 10
92.159
 20
135.766
 11
92.1865
 21
135.696
  0
LINE
  8
0
 10
92.1865
 20
135.696
 11
92.211
 21
135.627
  0
LINE
  8
0
 10
92.211
 20
135.627
 11
92.2325
 21
135.558
  0
LINE
  8
0
 10
92.2325
 20
135.558
 11
92.2855
 21
135.374
  0
LINE
  8
0
 10
92.2855
 20
135.374
 11
87.6975
 21
135.374
  0
LINE
  8
0
 10
95.222
 20
118.708
 11
95.2206
 21
118.75
  0
LINE
  8
0
 10
95.2206
 20
118.75
 11
95.2163
 21
118.807
  0
LINE
  8
0
 10
95.2163
 20
118.807
 11
95.1412
 21
119.466
  0
LINE
  8
0
 10
95.1412
 20
119.466
 11
95.1152
 21
119.667
  0
LINE
  8
0
 10
95.1152
 20
119.667
 11
95.06
 21
120.027
  0
LINE
  8
0
 10
95.06
 20
120.027
 11
95.0464
 21
120.078
  0
LINE
  8
0
 10
95.0464
 20
120.078
 11
95.0059
 21
120.203
  0
LINE
  8
0
 10
95.0059
 20
120.203
 11
94.9527
 21
120.347
  0
LINE
  8
0
 10
94.9527
 20
120.347
 11
94.9305
 21
120.397
  0
LINE
  8
0
 10
94.9305
 20
120.397
 11
94.9127
 21
120.426
  0
LINE
  8
0
 10
94.9127
 20
120.426
 11
94.899
 21
120.436
  0
LINE
  8
0
 10
94.899
 20
120.436
 11
89.0271
 21
120.436
  0
LINE
  8
0
 10
89.0271
 20
120.436
 11
89.0271
 21
122.74
  0
LINE
  8
0
 10
89.0271
 20
122.74
 11
94.414
 21
122.74
  0
LINE
  8
0
 10
94.414
 20
122.74
 11
94.414
 21
124.98
  0
LINE
  8
0
 10
94.414
 20
124.98
 11
89.0271
 21
124.98
  0
LINE
  8
0
 10
89.0271
 20
124.98
 11
89.0271
 21
126.964
  0
LINE
  8
0
 10
89.0271
 20
126.964
 11
94.737
 21
126.964
  0
LINE
  8
0
 10
94.737
 20
126.964
 11
94.7507
 21
126.97
  0
LINE
  8
0
 10
94.7507
 20
126.97
 11
94.7688
 21
126.988
  0
LINE
  8
0
 10
94.7688
 20
126.988
 11
94.7912
 21
127.019
  0
LINE
  8
0
 10
94.7912
 20
127.019
 11
94.8181
 21
127.061
  0
LINE
  8
0
 10
94.8181
 20
127.061
 11
94.8673
 21
127.149
  0
LINE
  8
0
 10
94.8673
 20
127.149
 11
94.899
 21
127.216
  0
LINE
  8
0
 10
94.899
 20
127.216
 11
94.9666
 21
127.542
  0
LINE
  8
0
 10
94.9666
 20
127.542
 11
95.0471
 21
128.049
  0
LINE
  8
0
 10
95.0471
 20
128.049
 11
95.0586
 21
128.146
  0
LINE
  8
0
 10
95.0586
 20
128.146
 11
95.06
 21
128.18
  0
LINE
  8
0
 10
95.06
 20
128.18
 11
96.526
 21
128.18
  0
LINE
  8
0
 10
96.526
 20
128.18
 11
96.526
 21
118.708
  0
LINE
  8
0
 10
96.526
 20
118.708
 11
95.222
 21
118.708
  0
LINE
  8
0
 10
83.7901
 20
118.708
 11
83.7901
 21
128.18
  0
LINE
  8
0
 10
83.7901
 20
128.18
 11
85.2621
 21
128.18
  0
LINE
  8
0
 10
85.2621
 20
128.18
 11
85.2621
 21
118.708
  0
LINE
  8
0
 10
85.2621
 20
118.708
 11
83.7901
 21
118.708
  0
LINE
  8
0
 10
100.954
 20
118.708
 11
100.954
 21
128.18
  0
LINE
  8
0
 10
100.954
 20
128.18
 11
102.426
 21
128.18
  0
LINE
  8
0
 10
102.426
 20
128.18
 11
102.426
 21
118.708
  0
LINE
  8
0
 10
102.426
 20
118.708
 11
100.954
 21
118.708
  0
LINE
  8
0
 10
106.152
 20
118.708
 11
106.152
 21
122.56
  0
LINE
  8
0
 10
106.152
 20
122.56
 11
110.554
 21
122.56
  0
LINE
  8
0
 10
110.554
 20
122.56
 11
110.554
 21
124.852
  0
LINE
  8
0
 10
110.554
 20
124.852
 11
106.129
 21
124.852
  0
LINE
  8
0
 10
106.129
 20
124.852
 11
106.129
 21
126.15
  0
LINE
  8
0
 10
106.129
 20
126.15
 11
106.135
 21
126.303
  0
LINE
  8
0
 10
106.135
 20
126.303
 11
106.152
 21
126.56
  0
LINE
  8
0
 10
106.152
 20
126.56
 11
106.16
 21
126.61
  0
LINE
  8
0
 10
106.16
 20
126.61
 11
106.175
 21
126.668
  0
LINE
  8
0
 10
106.175
 20
126.668
 11
106.195
 21
126.734
  0
LINE
  8
0
 10
106.195
 20
126.734
 11
106.222
 21
126.808
  0
LINE
  8
0
 10
106.222
 20
126.808
 11
106.249
 21
126.876
  0
LINE
  8
0
 10
106.249
 20
126.876
 11
106.274
 21
126.925
  0
LINE
  8
0
 10
106.274
 20
126.925
 11
106.296
 21
126.954
  0
LINE
  8
0
 10
106.296
 20
126.954
 11
106.315
 21
126.964
  0
LINE
  8
0
 10
106.315
 20
126.964
 11
111.2
 21
126.964
  0
LINE
  8
0
 10
111.2
 20
126.964
 11
111.229
 21
126.991
  0
LINE
  8
0
 10
111.229
 20
126.991
 11
111.26
 21
127.027
  0
LINE
  8
0
 10
111.26
 20
127.027
 11
111.293
 21
127.071
  0
LINE
  8
0
 10
111.293
 20
127.071
 11
111.327
 21
127.124
  0
LINE
  8
0
 10
111.327
 20
127.124
 11
111.357
 21
127.184
  0
LINE
  8
0
 10
111.357
 20
127.184
 11
111.378
 21
127.251
  0
LINE
  8
0
 10
111.378
 20
127.251
 11
111.391
 21
127.322
  0
LINE
  8
0
 10
111.391
 20
127.322
 11
111.396
 21
127.4
  0
LINE
  8
0
 10
111.396
 20
127.4
 11
111.428
 21
127.506
  0
LINE
  8
0
 10
111.428
 20
127.506
 11
111.454
 21
127.618
  0
LINE
  8
0
 10
111.454
 20
127.618
 11
111.475
 21
127.733
  0
LINE
  8
0
 10
111.475
 20
127.733
 11
111.502
 21
127.903
  0
LINE
  8
0
 10
111.502
 20
127.903
 11
111.513
 21
128.007
  0
LINE
  8
0
 10
111.513
 20
128.007
 11
111.523
 21
128.18
  0
LINE
  8
0
 10
111.523
 20
128.18
 11
112.666
 21
128.18
  0
LINE
  8
0
 10
112.666
 20
128.18
 11
112.666
 21
118.708
  0
LINE
  8
0
 10
112.666
 20
118.708
 11
106.152
 21
118.708
  0
LINE
  8
0
 10
116.099
 20
118.708
 11
116.099
 21
128.18
  0
LINE
  8
0
 10
116.099
 20
128.18
 11
119.187
 21
128.18
  0
LINE
  8
0
 10
119.187
 20
128.18
 11
118.958
 21
127.948
  0
LINE
  8
0
 10
118.958
 20
127.948
 11
118.745
 21
127.705
  0
LINE
  8
0
 10
118.745
 20
127.705
 11
118.549
 21
127.45
  0
LINE
  8
0
 10
118.549
 20
127.45
 11
118.37
 21
127.183
  0
LINE
  8
0
 10
118.37
 20
127.183
 11
118.207
 21
126.907
  0
LINE
  8
0
 10
118.207
 20
126.907
 11
118.059
 21
126.625
  0
LINE
  8
0
 10
118.059
 20
126.625
 11
117.926
 21
126.336
  0
LINE
  8
0
 10
117.926
 20
126.336
 11
117.808
 21
126.041
  0
LINE
  8
0
 10
117.808
 20
126.041
 11
117.705
 21
125.74
  0
LINE
  8
0
 10
117.705
 20
125.74
 11
117.617
 21
125.434
  0
LINE
  8
0
 10
117.617
 20
125.434
 11
117.543
 21
125.122
  0
LINE
  8
0
 10
117.543
 20
125.122
 11
117.483
 21
124.806
  0
LINE
  8
0
 10
117.483
 20
124.806
 11
117.438
 21
124.487
  0
LINE
  8
0
 10
117.438
 20
124.487
 11
117.405
 21
124.169
  0
LINE
  8
0
 10
117.405
 20
124.169
 11
117.386
 21
123.85
  0
LINE
  8
0
 10
117.386
 20
123.85
 11
117.379
 21
123.531
  0
LINE
  8
0
 10
117.379
 20
123.531
 11
117.411
 21
122.825
  0
LINE
  8
0
 10
117.411
 20
122.825
 11
117.507
 21
122.154
  0
LINE
  8
0
 10
117.507
 20
122.154
 11
117.666
 21
121.52
  0
LINE
  8
0
 10
117.666
 20
121.52
 11
117.889
 21
120.922
  0
LINE
  8
0
 10
117.889
 20
120.922
 11
118.172
 21
120.349
  0
LINE
  8
0
 10
118.172
 20
120.349
 11
118.509
 21
119.789
  0
LINE
  8
0
 10
118.509
 20
119.789
 11
118.902
 21
119.242
  0
LINE
  8
0
 10
118.902
 20
119.242
 11
119.349
 21
118.708
  0
LINE
  8
0
 10
119.349
 20
118.708
 11
116.099
 21
118.708
  0
LINE
  8
0
 10
128.17
 20
118.708
 11
128.471
 21
118.901
  0
LINE
  8
0
 10
128.471
 20
118.901
 11
128.636
 21
119.017
  0
LINE
  8
0
 10
128.636
 20
119.017
 11
128.802
 21
119.144
  0
LINE
  8
0
 10
128.802
 20
119.144
 11
128.879
 21
119.207
  0
LINE
  8
0
 10
128.879
 20
119.207
 11
128.952
 21
119.269
  0
LINE
  8
0
 10
128.952
 20
119.269
 11
129.021
 21
119.33
  0
LINE
  8
0
 10
129.021
 20
119.33
 11
129.079
 21
119.388
  0
LINE
  8
0
 10
129.079
 20
119.388
 11
129.121
 21
119.439
  0
LINE
  8
0
 10
129.121
 20
119.439
 11
129.146
 21
119.484
  0
LINE
  8
0
 10
129.146
 20
119.484
 11
129.154
 21
119.522
  0
LINE
  8
0
 10
129.154
 20
119.522
 11
129.154
 21
124.276
  0
LINE
  8
0
 10
129.154
 20
124.276
 11
123.768
 21
124.276
  0
LINE
  8
0
 10
123.768
 20
124.276
 11
123.768
 21
121.908
  0
LINE
  8
0
 10
123.768
 20
121.908
 11
125.887
 21
121.908
  0
LINE
  8
0
 10
125.887
 20
121.908
 11
125.915
 21
121.905
  0
LINE
  8
0
 10
125.915
 20
121.905
 11
125.939
 21
121.895
  0
LINE
  8
0
 10
125.939
 20
121.895
 11
125.961
 21
121.879
  0
LINE
  8
0
 10
125.961
 20
121.879
 11
125.98
 21
121.856
  0
LINE
  8
0
 10
125.98
 20
121.856
 11
125.997
 21
121.829
  0
LINE
  8
0
 10
125.997
 20
121.829
 11
126.012
 21
121.798
  0
LINE
  8
0
 10
126.012
 20
121.798
 11
126.026
 21
121.765
  0
LINE
  8
0
 10
126.026
 20
121.765
 11
126.038
 21
121.729
  0
LINE
  8
0
 10
126.038
 20
121.729
 11
126.049
 21
121.692
  0
LINE
  8
0
 10
126.049
 20
121.692
 11
126.057
 21
121.653
  0
LINE
  8
0
 10
126.057
 20
121.653
 11
126.063
 21
121.614
  0
LINE
  8
0
 10
126.063
 20
121.614
 11
126.067
 21
121.574
  0
LINE
  8
0
 10
126.067
 20
121.574
 11
126.072
 21
121.496
  0
LINE
  8
0
 10
126.072
 20
121.496
 11
126.073
 21
121.32
  0
LINE
  8
0
 10
126.073
 20
121.32
 11
126.056
 21
121.145
  0
LINE
  8
0
 10
126.056
 20
121.145
 11
126.006
 21
120.988
  0
LINE
  8
0
 10
126.006
 20
120.988
 11
125.923
 21
120.848
  0
LINE
  8
0
 10
125.923
 20
120.848
 11
125.806
 21
120.727
  0
LINE
  8
0
 10
125.806
 20
120.727
 11
125.666
 21
120.621
  0
LINE
  8
0
 10
125.666
 20
120.621
 11
125.512
 21
120.529
  0
LINE
  8
0
 10
125.512
 20
120.529
 11
125.345
 21
120.449
  0
LINE
  8
0
 10
125.345
 20
120.449
 11
125.163
 21
120.382
  0
LINE
  8
0
 10
125.163
 20
120.382
 11
124.974
 21
120.327
  0
LINE
  8
0
 10
124.974
 20
120.327
 11
124.781
 21
120.281
  0
LINE
  8
0
 10
124.781
 20
120.281
 11
124.586
 21
120.246
  0
LINE
  8
0
 10
124.586
 20
120.246
 11
124.387
 21
120.22
  0
LINE
  8
0
 10
124.387
 20
120.22
 11
124.196
 21
120.203
  0
LINE
  8
0
 10
124.196
 20
120.203
 11
124.021
 21
120.19
  0
LINE
  8
0
 10
124.021
 20
120.19
 11
123.863
 21
120.183
  0
LINE
  8
0
 10
123.863
 20
120.183
 11
123.721
 21
120.18
  0
LINE
  8
0
 10
123.721
 20
120.18
 11
123.335
 21
120.197
  0
LINE
  8
0
 10
123.335
 20
120.197
 11
122.987
 21
120.248
  0
LINE
  8
0
 10
122.987
 20
120.248
 11
122.677
 21
120.333
  0
LINE
  8
0
 10
122.677
 20
120.333
 11
122.406
 21
120.452
  0
LINE
  8
0
 10
122.406
 20
120.452
 11
122.168
 21
120.601
  0
LINE
  8
0
 10
122.168
 20
120.601
 11
121.958
 21
120.774
  0
LINE
  8
0
 10
121.958
 20
120.774
 11
121.775
 21
120.972
  0
LINE
  8
0
 10
121.775
 20
120.972
 11
121.619
 21
121.195
  0
LINE
  8
0
 10
121.619
 20
121.195
 11
121.489
 21
121.44
  0
LINE
  8
0
 10
121.489
 20
121.44
 11
121.381
 21
121.704
  0
LINE
  8
0
 10
121.381
 20
121.704
 11
121.297
 21
121.988
  0
LINE
  8
0
 10
121.297
 20
121.988
 11
121.236
 21
122.291
  0
LINE
  8
0
 10
121.236
 20
122.291
 11
121.193
 21
122.61
  0
LINE
  8
0
 10
121.193
 20
122.61
 11
121.163
 21
122.941
  0
LINE
  8
0
 10
121.163
 20
122.941
 11
121.144
 21
123.283
  0
LINE
  8
0
 10
121.144
 20
123.283
 11
121.138
 21
123.637
  0
LINE
  8
0
 10
121.138
 20
123.637
 11
121.138
 21
123.958
  0
LINE
  8
0
 10
121.138
 20
123.958
 11
121.147
 21
124.262
  0
LINE
  8
0
 10
121.147
 20
124.262
 11
121.151
 21
124.637
  0
LINE
  8
0
 10
121.151
 20
124.637
 11
121.161
 21
124.936
  0
LINE
  8
0
 10
121.161
 20
124.936
 11
121.299
 21
125.398
  0
LINE
  8
0
 10
121.299
 20
125.398
 11
121.483
 21
125.8
  0
LINE
  8
0
 10
121.483
 20
125.8
 11
121.71
 21
126.141
  0
LINE
  8
0
 10
121.71
 20
126.141
 11
121.983
 21
126.42
  0
LINE
  8
0
 10
121.983
 20
126.42
 11
122.303
 21
126.638
  0
LINE
  8
0
 10
122.303
 20
126.638
 11
122.673
 21
126.794
  0
LINE
  8
0
 10
122.673
 20
126.794
 11
123.091
 21
126.887
  0
LINE
  8
0
 10
123.091
 20
126.887
 11
123.559
 21
126.918
  0
LINE
  8
0
 10
123.559
 20
126.918
 11
123.754
 21
126.913
  0
LINE
  8
0
 10
123.754
 20
126.913
 11
123.934
 21
126.896
  0
LINE
  8
0
 10
123.934
 20
126.896
 11
124.099
 21
126.869
  0
LINE
  8
0
 10
124.099
 20
126.869
 11
124.248
 21
126.831
  0
LINE
  8
0
 10
124.248
 20
126.831
 11
124.385
 21
126.785
  0
LINE
  8
0
 10
124.385
 20
126.785
 11
124.51
 21
126.734
  0
LINE
  8
0
 10
124.51
 20
126.734
 11
124.625
 21
126.678
  0
LINE
  8
0
 10
124.625
 20
126.678
 11
124.729
 21
126.617
  0
LINE
  8
0
 10
124.729
 20
126.617
 11
124.824
 21
126.552
  0
LINE
  8
0
 10
124.824
 20
126.552
 11
124.912
 21
126.482
  0
LINE
  8
0
 10
124.912
 20
126.482
 11
124.992
 21
126.41
  0
LINE
  8
0
 10
124.992
 20
126.41
 11
125.065
 21
126.333
  0
LINE
  8
0
 10
125.065
 20
126.333
 11
125.201
 21
126.184
  0
LINE
  8
0
 10
125.201
 20
126.184
 11
125.331
 21
126.049
  0
LINE
  8
0
 10
125.331
 20
126.049
 11
125.396
 21
125.988
  0
LINE
  8
0
 10
125.396
 20
125.988
 11
125.465
 21
125.932
  0
LINE
  8
0
 10
125.465
 20
125.932
 11
125.535
 21
125.881
  0
LINE
  8
0
 10
125.535
 20
125.881
 11
125.609
 21
125.835
  0
LINE
  8
0
 10
125.609
 20
125.835
 11
125.688
 21
125.797
  0
LINE
  8
0
 10
125.688
 20
125.797
 11
125.775
 21
125.77
  0
LINE
  8
0
 10
125.775
 20
125.77
 11
125.868
 21
125.753
  0
LINE
  8
0
 10
125.868
 20
125.753
 11
125.969
 21
125.748
  0
LINE
  8
0
 10
125.969
 20
125.748
 11
126.27
 21
125.784
  0
LINE
  8
0
 10
126.27
 20
125.784
 11
126.424
 21
125.806
  0
LINE
  8
0
 10
126.424
 20
125.806
 11
126.806
 21
125.867
  0
LINE
  8
0
 10
126.806
 20
125.867
 11
127.446
 21
125.977
  0
LINE
  8
0
 10
127.446
 20
125.977
 11
128.28
 21
126.132
  0
LINE
  8
0
 10
128.28
 20
126.132
 11
128.83
 21
126.241
  0
LINE
  8
0
 10
128.83
 20
126.241
 11
128.849
 21
126.259
  0
LINE
  8
0
 10
128.849
 20
126.259
 11
128.872
 21
126.29
  0
LINE
  8
0
 10
128.872
 20
126.29
 11
128.898
 21
126.333
  0
LINE
  8
0
 10
128.898
 20
126.333
 11
128.928
 21
126.39
  0
LINE
  8
0
 10
128.928
 20
126.39
 11
128.956
 21
126.448
  0
LINE
  8
0
 10
128.956
 20
126.448
 11
128.976
 21
126.497
  0
LINE
  8
0
 10
128.976
 20
126.497
 11
128.988
 21
126.534
  0
LINE
  8
0
 10
128.988
 20
126.534
 11
128.992
 21
126.562
  0
LINE
  8
0
 10
128.992
 20
126.562
 11
128.986
 21
126.652
  0
LINE
  8
0
 10
128.986
 20
126.652
 11
128.966
 21
126.751
  0
LINE
  8
0
 10
128.966
 20
126.751
 11
128.933
 21
126.856
  0
LINE
  8
0
 10
128.933
 20
126.856
 11
128.887
 21
126.97
  0
LINE
  8
0
 10
128.887
 20
126.97
 11
128.833
 21
127.087
  0
LINE
  8
0
 10
128.833
 20
127.087
 11
128.776
 21
127.204
  0
LINE
  8
0
 10
128.776
 20
127.204
 11
128.715
 21
127.319
  0
LINE
  8
0
 10
128.715
 20
127.319
 11
128.65
 21
127.434
  0
LINE
  8
0
 10
128.65
 20
127.434
 11
128.583
 21
127.548
  0
LINE
  8
0
 10
128.583
 20
127.548
 11
128.516
 21
127.658
  0
LINE
  8
0
 10
128.516
 20
127.658
 11
128.447
 21
127.766
  0
LINE
  8
0
 10
128.447
 20
127.766
 11
128.17
 21
128.18
  0
LINE
  8
0
 10
128.17
 20
128.18
 11
130.95
 21
128.18
  0
LINE
  8
0
 10
130.95
 20
128.18
 11
130.95
 21
118.708
  0
LINE
  8
0
 10
130.95
 20
118.708
 11
128.17
 21
118.708
  0
LINE
  8
0
 10
132.912
 20
118.708
 11
132.912
 21
128.18
  0
LINE
  8
0
 10
132.912
 20
128.18
 11
134.384
 21
128.18
  0
LINE
  8
0
 10
134.384
 20
128.18
 11
134.384
 21
118.708
  0
LINE
  8
0
 10
134.384
 20
118.708
 11
132.912
 21
118.708
  0
LINE
  8
0
 10
145.776
 20
118.708
 11
145.776
 21
128.18
  0
LINE
  8
0
 10
145.776
 20
128.18
 11
147.44
 21
128.18
  0
LINE
  8
0
 10
147.44
 20
128.18
 11
147.44
 21
118.708
  0
LINE
  8
0
 10
147.44
 20
118.708
 11
145.776
 21
118.708
  0
LINE
  8
0
 10
138.136
 20
125.412
 11
138.136
 21
128.18
  0
LINE
  8
0
 10
138.136
 20
128.18
 11
141.89
 21
128.18
  0
LINE
  8
0
 10
141.89
 20
128.18
 11
141.89
 21
125.412
  0
LINE
  8
0
 10
141.89
 20
125.412
 11
138.136
 21
125.412
  0
LINE
  8
0
 10
138.136
 20
118.708
 11
138.136
 21
122.299
  0
LINE
  8
0
 10
138.136
 20
122.299
 11
141.89
 21
122.299
  0
LINE
  8
0
 10
141.89
 20
122.299
 11
141.89
 21
118.708
  0
LINE
  8
0
 10
141.89
 20
118.708
 11
138.136
 21
118.708
  0
LINE
  8
0
 10
100.801
 20
102.042
 11
100.801
 21
111.514
  0
LINE
  8
0
 10
100.801
 20
111.514
 11
107.45
 21
111.514
  0
LINE
  8
0
 10
107.45
 20
111.514
 11
107.45
 21
104.813
  0
LINE
  8
0
 10
107.45
 20
104.813
 11
107.444
 21
104.693
  0
LINE
  8
0
 10
107.444
 20
104.693
 11
107.427
 21
104.578
  0
LINE
  8
0
 10
107.427
 20
104.578
 11
107.397
 21
104.467
  0
LINE
  8
0
 10
107.397
 20
104.467
 11
107.357
 21
104.36
  0
LINE
  8
0
 10
107.357
 20
104.36
 11
107.306
 21
104.259
  0
LINE
  8
0
 10
107.306
 20
104.259
 11
107.248
 21
104.165
  0
LINE
  8
0
 10
107.248
 20
104.165
 11
107.182
 21
104.077
  0
LINE
  8
0
 10
107.182
 20
104.077
 11
107.108
 21
103.995
  0
LINE
  8
0
 10
107.108
 20
103.995
 11
107.026
 21
103.921
  0
LINE
  8
0
 10
107.026
 20
103.921
 11
106.939
 21
103.856
  0
LINE
  8
0
 10
106.939
 20
103.856
 11
106.844
 21
103.8
  0
LINE
  8
0
 10
106.844
 20
103.8
 11
106.743
 21
103.752
  0
LINE
  8
0
 10
106.743
 20
103.752
 11
106.638
 21
103.714
  0
LINE
  8
0
 10
106.638
 20
103.714
 11
106.532
 21
103.687
  0
LINE
  8
0
 10
106.532
 20
103.687
 11
106.424
 21
103.67
  0
LINE
  8
0
 10
106.424
 20
103.67
 11
106.315
 21
103.665
  0
LINE
  8
0
 10
106.315
 20
103.665
 11
106.11
 21
103.677
  0
LINE
  8
0
 10
106.11
 20
103.677
 11
105.938
 21
103.711
  0
LINE
  8
0
 10
105.938
 20
103.711
 11
105.797
 21
103.769
  0
LINE
  8
0
 10
105.797
 20
103.769
 11
105.689
 21
103.85
  0
LINE
  8
0
 10
105.689
 20
103.85
 11
105.602
 21
103.949
  0
LINE
  8
0
 10
105.602
 20
103.949
 11
105.528
 21
104.059
  0
LINE
  8
0
 10
105.528
 20
104.059
 11
105.466
 21
104.181
  0
LINE
  8
0
 10
105.466
 20
104.181
 11
105.417
 21
104.314
  0
LINE
  8
0
 10
105.417
 20
104.314
 11
105.375
 21
104.456
  0
LINE
  8
0
 10
105.375
 20
104.456
 11
105.336
 21
104.602
  0
LINE
  8
0
 10
105.336
 20
104.602
 11
105.299
 21
104.752
  0
LINE
  8
0
 10
105.299
 20
104.752
 11
105.266
 21
104.906
  0
LINE
  8
0
 10
105.266
 20
104.906
 11
105.226
 21
105.059
  0
LINE
  8
0
 10
105.226
 20
105.059
 11
105.169
 21
105.205
  0
LINE
  8
0
 10
105.169
 20
105.205
 11
105.096
 21
105.343
  0
LINE
  8
0
 10
105.096
 20
105.343
 11
105.006
 21
105.474
  0
LINE
  8
0
 10
105.006
 20
105.474
 11
104.815
 21
105.445
  0
LINE
  8
0
 10
104.815
 20
105.445
 11
104.342
 21
105.381
  0
LINE
  8
0
 10
104.342
 20
105.381
 11
103.397
 21
105.265
  0
LINE
  8
0
 10
103.397
 20
105.265
 11
102.883
 21
105.196
  0
LINE
  8
0
 10
102.883
 20
105.196
 11
102.561
 21
105.149
  0
LINE
  8
0
 10
102.561
 20
105.149
 11
102.54
 21
105.142
  0
LINE
  8
0
 10
102.54
 20
105.142
 11
101.913
 21
104.975
  0
LINE
  8
0
 10
101.913
 20
104.975
 11
101.912
 21
104.952
  0
LINE
  8
0
 10
101.912
 20
104.952
 11
101.896
 21
104.751
  0
LINE
  8
0
 10
101.896
 20
104.751
 11
101.89
 21
104.641
  0
LINE
  8
0
 10
101.89
 20
104.641
 11
101.889
 21
104.488
  0
LINE
  8
0
 10
101.889
 20
104.488
 11
101.906
 21
104.141
  0
LINE
  8
0
 10
101.906
 20
104.141
 11
101.958
 21
103.807
  0
LINE
  8
0
 10
101.958
 20
103.807
 11
102.045
 21
103.486
  0
LINE
  8
0
 10
102.045
 20
103.486
 11
102.167
 21
103.178
  0
LINE
  8
0
 10
102.167
 20
103.178
 11
102.316
 21
102.881
  0
LINE
  8
0
 10
102.316
 20
102.881
 11
102.486
 21
102.593
  0
LINE
  8
0
 10
102.486
 20
102.593
 11
102.676
 21
102.313
  0
LINE
  8
0
 10
102.676
 20
102.313
 11
102.886
 21
102.042
  0
LINE
  8
0
 10
102.886
 20
102.042
 11
100.801
 21
102.042
  0
LINE
  8
0
 10
110.08
 20
102.042
 11
110.167
 21
102.179
  0
LINE
  8
0
 10
110.167
 20
102.179
 11
110.257
 21
102.322
  0
LINE
  8
0
 10
110.257
 20
102.322
 11
110.347
 21
102.471
  0
LINE
  8
0
 10
110.347
 20
102.471
 11
110.439
 21
102.627
  0
LINE
  8
0
 10
110.439
 20
102.627
 11
110.529
 21
102.788
  0
LINE
  8
0
 10
110.529
 20
102.788
 11
110.617
 21
102.95
  0
LINE
  8
0
 10
110.617
 20
102.95
 11
110.7
 21
103.115
  0
LINE
  8
0
 10
110.7
 20
103.115
 11
110.78
 21
103.282
  0
LINE
  8
0
 10
110.78
 20
103.282
 11
110.855
 21
103.451
  0
LINE
  8
0
 10
110.855
 20
103.451
 11
110.922
 21
103.622
  0
LINE
  8
0
 10
110.922
 20
103.622
 11
110.982
 21
103.793
  0
LINE
  8
0
 10
110.982
 20
103.793
 11
111.035
 21
103.966
  0
LINE
  8
0
 10
111.035
 20
103.966
 11
111.078
 21
104.139
  0
LINE
  8
0
 10
111.078
 20
104.139
 11
111.109
 21
104.311
  0
LINE
  8
0
 10
111.109
 20
104.311
 11
111.128
 21
104.482
  0
LINE
  8
0
 10
111.128
 20
104.482
 11
111.134
 21
104.651
  0
LINE
  8
0
 10
111.134
 20
104.651
 11
111.134
 21
111.514
  0
LINE
  8
0
 10
111.134
 20
111.514
 11
112.848
 21
111.514
  0
LINE
  8
0
 10
112.848
 20
111.514
 11
112.848
 21
102.042
  0
LINE
  8
0
 10
112.848
 20
102.042
 11
110.08
 21
102.042
  0
LINE
  8
0
 10
116.167
 20
102.042
 11
116.167
 21
111.514
  0
LINE
  8
0
 10
116.167
 20
111.514
 11
117.831
 21
111.514
  0
LINE
  8
0
 10
117.831
 20
111.514
 11
117.831
 21
102.042
  0
LINE
  8
0
 10
117.831
 20
102.042
 11
116.167
 21
102.042
  0
LINE
  8
0
 10
129.709
 20
102.042
 11
129.287
 21
102.716
  0
LINE
  8
0
 10
129.287
 20
102.716
 11
128.307
 21
104.32
  0
LINE
  8
0
 10
128.307
 20
104.32
 11
126.118
 21
107.92
  0
LINE
  8
0
 10
126.118
 20
107.92
 11
126.076
 21
107.995
  0
LINE
  8
0
 10
126.076
 20
107.995
 11
125.991
 21
108.162
  0
LINE
  8
0
 10
125.991
 20
108.162
 11
125.959
 21
108.232
  0
LINE
  8
0
 10
125.959
 20
108.232
 11
125.955
 21
108.245
  0
LINE
  8
0
 10
125.955
 20
108.245
 11
125.959
 21
108.273
  0
LINE
  8
0
 10
125.959
 20
108.273
 11
125.971
 21
108.31
  0
LINE
  8
0
 10
125.971
 20
108.31
 11
125.991
 21
108.356
  0
LINE
  8
0
 10
125.991
 20
108.356
 11
126.049
 21
108.468
  0
LINE
  8
0
 10
126.049
 20
108.468
 11
126.099
 21
108.553
  0
LINE
  8
0
 10
126.099
 20
108.553
 11
126.118
 21
108.581
  0
LINE
  8
0
 10
126.118
 20
108.581
 11
129.06
 21
111.514
  0
LINE
  8
0
 10
129.06
 20
111.514
 11
130.856
 21
111.514
  0
LINE
  8
0
 10
130.856
 20
111.514
 11
130.856
 21
102.042
  0
LINE
  8
0
 10
130.856
 20
102.042
 11
129.709
 21
102.042
  0
LINE
  8
0
 10
121.739
 20
108.734
 11
121.722
 21
108.737
  0
LINE
  8
0
 10
121.722
 20
108.737
 11
121.717
 21
108.741
  0
LINE
  8
0
 10
121.717
 20
108.741
 11
121.716
 21
108.746
  0
LINE
  8
0
 10
121.716
 20
108.746
 11
121.697
 21
108.76
  0
LINE
  8
0
 10
121.697
 20
108.76
 11
121.647
 21
108.8
  0
LINE
  8
0
 10
121.647
 20
108.8
 11
121.589
 21
108.854
  0
LINE
  8
0
 10
121.589
 20
108.854
 11
121.57
 21
108.876
  0
LINE
  8
0
 10
121.57
 20
108.876
 11
121.558
 21
108.894
  0
LINE
  8
0
 10
121.558
 20
108.894
 11
121.554
 21
108.908
  0
LINE
  8
0
 10
121.554
 20
108.908
 11
121.554
 21
111.514
  0
LINE
  8
0
 10
121.554
 20
111.514
 11
124.16
 21
111.514
  0
LINE
  8
0
 10
124.16
 20
111.514
 11
124.152
 21
111.494
  0
LINE
  8
0
 10
124.152
 20
111.494
 11
124.126
 21
111.442
  0
LINE
  8
0
 10
124.126
 20
111.442
 11
124.04
 21
111.299
  0
LINE
  8
0
 10
124.04
 20
111.299
 11
123.963
 21
111.182
  0
LINE
  8
0
 10
123.963
 20
111.182
 11
123.911
 21
111.114
  0
LINE
  8
0
 10
123.911
 20
111.114
 11
123.836
 21
111.028
  0
LINE
  8
0
 10
123.836
 20
111.028
 11
123.446
 21
110.549
  0
LINE
  8
0
 10
123.446
 20
110.549
 11
123.188
 21
110.242
  0
LINE
  8
0
 10
123.188
 20
110.242
 11
122.04
 21
108.908
  0
LINE
  8
0
 10
122.04
 20
108.908
 11
122.026
 21
108.889
  0
LINE
  8
0
 10
122.026
 20
108.889
 11
121.982
 21
108.839
  0
LINE
  8
0
 10
121.982
 20
108.839
 11
121.924
 21
108.781
  0
LINE
  8
0
 10
121.924
 20
108.781
 11
121.887
 21
108.75
  0
LINE
  8
0
 10
121.887
 20
108.75
 11
121.878
 21
108.746
  0
LINE
  8
0
 10
121.878
 20
108.746
 11
121.876
 21
108.741
  0
LINE
  8
0
 10
121.876
 20
108.741
 11
121.869
 21
108.737
  0
LINE
  8
0
 10
121.869
 20
108.737
 11
121.843
 21
108.734
  0
LINE
  8
0
 10
121.843
 20
108.734
 11
121.739
 21
108.734
  0
LINE
  8
0
 10
133.952
 20
102.042
 11
133.952
 21
111.514
  0
LINE
  8
0
 10
133.952
 20
111.514
 11
135.616
 21
111.514
  0
LINE
  8
0
 10
135.616
 20
111.514
 11
135.616
 21
102.042
  0
LINE
  8
0
 10
135.616
 20
102.042
 11
133.952
 21
102.042
  0
LINE
  8
0
 10
144.704
 20
102.042
 11
144.704
 21
103.92
  0
LINE
  8
0
 10
144.704
 20
103.92
 11
139.248
 21
103.92
  0
LINE
  8
0
 10
139.248
 20
103.92
 11
139.248
 21
111.514
  0
LINE
  8
0
 10
139.248
 20
111.514
 11
146.368
 21
111.514
  0
LINE
  8
0
 10
146.368
 20
111.514
 11
146.368
 21
102.042
  0
LINE
  8
0
 10
146.368
 20
102.042
 11
144.704
 21
102.042
  0
LINE
  8
0
 10
86.5762
 20
102.042
 11
86.5762
 21
111.514
  0
LINE
  8
0
 10
86.5762
 20
111.514
 11
88.2402
 21
111.514
  0
LINE
  8
0
 10
88.2402
 20
111.514
 11
88.2402
 21
102.042
  0
LINE
  8
0
 10
88.2402
 20
102.042
 11
86.5762
 21
102.042
  0
LINE
  8
0
 10
91.9522
 20
102.042
 11
91.9522
 21
111.514
  0
LINE
  8
0
 10
91.9522
 20
111.514
 11
93.6162
 21
111.514
  0
LINE
  8
0
 10
93.6162
 20
111.514
 11
93.6162
 21
102.042
  0
LINE
  8
0
 10
93.6162
 20
102.042
 11
91.9522
 21
102.042
  0
LINE
  8
0
 10
121.484
 20
102.042
 11
121.484
 21
102.097
  0
LINE
  8
0
 10
121.484
 20
102.097
 11
121.502
 21
102.73
  0
LINE
  8
0
 10
121.502
 20
102.73
 11
121.536
 21
103.458
  0
LINE
  8
0
 10
121.536
 20
103.458
 11
121.548
 21
103.62
  0
LINE
  8
0
 10
121.548
 20
103.62
 11
121.558
 21
103.698
  0
LINE
  8
0
 10
121.558
 20
103.698
 11
121.57
 21
103.733
  0
LINE
  8
0
 10
121.57
 20
103.733
 11
121.589
 21
103.779
  0
LINE
  8
0
 10
121.589
 20
103.779
 11
121.617
 21
103.837
  0
LINE
  8
0
 10
121.617
 20
103.837
 11
121.647
 21
103.895
  0
LINE
  8
0
 10
121.647
 20
103.895
 11
121.674
 21
103.942
  0
LINE
  8
0
 10
121.674
 20
103.942
 11
121.697
 21
103.977
  0
LINE
  8
0
 10
121.697
 20
103.977
 11
121.716
 21
104
  0
LINE
  8
0
 10
121.716
 20
104
 11
121.993
 21
104.292
  0
LINE
  8
0
 10
121.993
 20
104.292
 11
122.696
 21
105.012
  0
LINE
  8
0
 10
122.696
 20
105.012
 11
122.899
 21
105.215
  0
LINE
  8
0
 10
122.899
 20
105.215
 11
123.068
 21
105.377
  0
LINE
  8
0
 10
123.068
 20
105.377
 11
123.126
 21
105.429
  0
LINE
  8
0
 10
123.126
 20
105.429
 11
123.166
 21
105.461
  0
LINE
  8
0
 10
123.166
 20
105.461
 11
123.187
 21
105.471
  0
LINE
  8
0
 10
123.187
 20
105.471
 11
123.511
 21
105.471
  0
LINE
  8
0
 10
123.511
 20
105.471
 11
123.52
 21
105.465
  0
LINE
  8
0
 10
123.52
 20
105.465
 11
123.534
 21
105.448
  0
LINE
  8
0
 10
123.534
 20
105.448
 11
123.555
 21
105.419
  0
LINE
  8
0
 10
123.555
 20
105.419
 11
123.643
 21
105.276
  0
LINE
  8
0
 10
123.643
 20
105.276
 11
123.942
 21
104.753
  0
LINE
  8
0
 10
123.942
 20
104.753
 11
123.998
 21
104.648
  0
LINE
  8
0
 10
123.998
 20
104.648
 11
124.106
 21
104.451
  0
LINE
  8
0
 10
124.106
 20
104.451
 11
124.27
 21
104.138
  0
LINE
  8
0
 10
124.27
 20
104.138
 11
124.566
 21
103.557
  0
LINE
  8
0
 10
124.566
 20
103.557
 11
124.966
 21
102.751
  0
LINE
  8
0
 10
124.966
 20
102.751
 11
125.307
 21
102.042
  0
LINE
  8
0
 10
125.307
 20
102.042
 11
121.484
 21
102.042
  0
LINE
  8
0
 10
133.709
 20
85.376
 11
133.709
 21
94.848
  0
LINE
  8
0
 10
133.709
 20
94.848
 11
135.373
 21
94.848
  0
LINE
  8
0
 10
135.373
 20
94.848
 11
135.373
 21
85.376
  0
LINE
  8
0
 10
135.373
 20
85.376
 11
133.709
 21
85.376
  0
LINE
  8
0
 10
82.0611
 20
85.376
 11
82.0611
 21
94.848
  0
LINE
  8
0
 10
82.0611
 20
94.848
 11
83.5331
 21
94.848
  0
LINE
  8
0
 10
83.5331
 20
94.848
 11
83.5331
 21
85.376
  0
LINE
  8
0
 10
83.5331
 20
85.376
 11
82.0611
 21
85.376
  0
LINE
  8
0
 10
96.717
 20
85.376
 11
96.717
 21
94.848
  0
LINE
  8
0
 10
96.717
 20
94.848
 11
98.381
 21
94.848
  0
LINE
  8
0
 10
98.381
 20
94.848
 11
98.381
 21
85.376
  0
LINE
  8
0
 10
98.381
 20
85.376
 11
96.717
 21
85.376
  0
LINE
  8
0
 10
99.5801
 20
85.376
 11
99.5801
 21
94.848
  0
LINE
  8
0
 10
99.5801
 20
94.848
 11
101.244
 21
94.848
  0
LINE
  8
0
 10
101.244
 20
94.848
 11
101.244
 21
85.376
  0
LINE
  8
0
 10
101.244
 20
85.376
 11
99.5801
 21
85.376
  0
LINE
  8
0
 10
112.444
 20
85.376
 11
112.444
 21
94.848
  0
LINE
  8
0
 10
112.444
 20
94.848
 11
114.108
 21
94.848
  0
LINE
  8
0
 10
114.108
 20
94.848
 11
114.108
 21
85.376
  0
LINE
  8
0
 10
114.108
 20
85.376
 11
112.444
 21
85.376
  0
LINE
  8
0
 10
105.453
 20
94.848
 11
108.882
 21
94.848
  0
LINE
  8
0
 10
108.882
 20
94.848
 11
108.882
 21
89.798
  0
LINE
  8
0
 10
108.882
 20
89.798
 11
105.453
 21
94.848
  0
LINE
  8
0
 10
116.246
 20
85.376
 11
116.246
 21
94.848
  0
LINE
  8
0
 10
116.246
 20
94.848
 11
119.171
 21
94.848
  0
LINE
  8
0
 10
119.171
 20
94.848
 11
118.781
 21
94.3071
  0
LINE
  8
0
 10
118.781
 20
94.3071
 11
118.444
 21
93.7625
  0
LINE
  8
0
 10
118.444
 20
93.7625
 11
118.161
 21
93.2141
  0
LINE
  8
0
 10
118.161
 20
93.2141
 11
117.931
 21
92.662
  0
LINE
  8
0
 10
117.931
 20
92.662
 11
117.754
 21
92.0929
  0
LINE
  8
0
 10
117.754
 20
92.0929
 11
117.627
 21
91.4928
  0
LINE
  8
0
 10
117.627
 20
91.4928
 11
117.551
 21
90.8614
  0
LINE
  8
0
 10
117.551
 20
90.8614
 11
117.526
 21
90.199
  0
LINE
  8
0
 10
117.526
 20
90.199
 11
117.555
 21
89.5091
  0
LINE
  8
0
 10
117.555
 20
89.5091
 11
117.641
 21
88.8423
  0
LINE
  8
0
 10
117.641
 20
88.8423
 11
117.784
 21
88.1986
  0
LINE
  8
0
 10
117.784
 20
88.1986
 11
117.984
 21
87.578
  0
LINE
  8
0
 10
117.984
 20
87.578
 11
118.25
 21
86.984
  0
LINE
  8
0
 10
118.25
 20
86.984
 11
118.591
 21
86.419
  0
LINE
  8
0
 10
118.591
 20
86.419
 11
119.006
 21
85.883
  0
LINE
  8
0
 10
119.006
 20
85.883
 11
119.496
 21
85.376
  0
LINE
  8
0
 10
119.496
 20
85.376
 11
116.246
 21
85.376
  0
LINE
  8
0
 10
127.687
 20
85.376
 11
127.932
 21
85.6589
  0
LINE
  8
0
 10
127.932
 20
85.6589
 11
128.156
 21
85.9395
  0
LINE
  8
0
 10
128.156
 20
85.9395
 11
128.36
 21
86.2179
  0
LINE
  8
0
 10
128.36
 20
86.2179
 11
128.544
 21
86.494
  0
LINE
  8
0
 10
128.544
 20
86.494
 11
128.709
 21
86.7716
  0
LINE
  8
0
 10
128.709
 20
86.7716
 11
128.857
 21
87.0535
  0
LINE
  8
0
 10
128.857
 20
87.0535
 11
128.987
 21
87.3396
  0
LINE
  8
0
 10
128.987
 20
87.3396
 11
129.1
 21
87.63
  0
LINE
  8
0
 10
129.1
 20
87.63
 11
129.197
 21
87.927
  0
LINE
  8
0
 10
129.197
 20
87.927
 11
129.28
 21
88.2318
  0
LINE
  8
0
 10
129.28
 20
88.2318
 11
129.348
 21
88.5444
  0
LINE
  8
0
 10
129.348
 20
88.5444
 11
129.401
 21
88.865
  0
LINE
  8
0
 10
129.401
 20
88.865
 11
129.442
 21
89.1972
  0
LINE
  8
0
 10
129.442
 20
89.1972
 11
129.471
 21
89.5438
  0
LINE
  8
0
 10
129.471
 20
89.5438
 11
129.488
 21
89.9047
  0
LINE
  8
0
 10
129.488
 20
89.9047
 11
129.494
 21
90.28
  0
LINE
  8
0
 10
129.494
 20
90.28
 11
129.49
 21
90.6128
  0
LINE
  8
0
 10
129.49
 20
90.6128
 11
129.478
 21
90.9382
  0
LINE
  8
0
 10
129.478
 20
90.9382
 11
129.458
 21
91.2563
  0
LINE
  8
0
 10
129.458
 20
91.2563
 11
129.43
 21
91.567
  0
LINE
  8
0
 10
129.43
 20
91.567
 11
129.391
 21
91.8707
  0
LINE
  8
0
 10
129.391
 20
91.8707
 11
129.338
 21
92.168
  0
LINE
  8
0
 10
129.338
 20
92.168
 11
129.27
 21
92.4588
  0
LINE
  8
0
 10
129.27
 20
92.4588
 11
129.187
 21
92.743
  0
LINE
  8
0
 10
129.187
 20
92.743
 11
129.088
 21
93.0222
  0
LINE
  8
0
 10
129.088
 20
93.0222
 11
128.971
 21
93.297
  0
LINE
  8
0
 10
128.971
 20
93.297
 11
128.836
 21
93.5672
  0
LINE
  8
0
 10
128.836
 20
93.5672
 11
128.683
 21
93.833
  0
LINE
  8
0
 10
128.683
 20
93.833
 11
128.509
 21
94.0944
  0
LINE
  8
0
 10
128.509
 20
94.0944
 11
128.313
 21
94.3508
  0
LINE
  8
0
 10
128.313
 20
94.3508
 11
128.092
 21
94.6019
  0
LINE
  8
0
 10
128.092
 20
94.6019
 11
127.849
 21
94.848
  0
LINE
  8
0
 10
127.849
 20
94.848
 11
130.774
 21
94.848
  0
LINE
  8
0
 10
130.774
 20
94.848
 11
130.774
 21
85.376
  0
LINE
  8
0
 10
130.774
 20
85.376
 11
127.687
 21
85.376
  0
LINE
  8
0
 10
139.235
 20
85.376
 11
139.235
 21
88.645
  0
LINE
  8
0
 10
139.235
 20
88.645
 11
139.6
 21
88.6521
  0
LINE
  8
0
 10
139.6
 20
88.6521
 11
139.966
 21
88.6613
  0
LINE
  8
0
 10
139.966
 20
88.6613
 11
140.333
 21
88.6726
  0
LINE
  8
0
 10
140.333
 20
88.6726
 11
140.7
 21
88.686
  0
LINE
  8
0
 10
140.7
 20
88.686
 11
141.064
 21
88.7059
  0
LINE
  8
0
 10
141.064
 20
88.7059
 11
141.421
 21
88.7368
  0
LINE
  8
0
 10
141.421
 20
88.7368
 11
141.771
 21
88.7785
  0
LINE
  8
0
 10
141.771
 20
88.7785
 11
142.113
 21
88.831
  0
LINE
  8
0
 10
142.113
 20
88.831
 11
142.446
 21
88.8963
  0
LINE
  8
0
 10
142.446
 20
88.8963
 11
142.766
 21
88.976
  0
LINE
  8
0
 10
142.766
 20
88.976
 11
143.074
 21
89.0703
  0
LINE
  8
0
 10
143.074
 20
89.0703
 11
143.37
 21
89.179
  0
LINE
  8
0
 10
143.37
 20
89.179
 11
143.65
 21
89.3069
  0
LINE
  8
0
 10
143.65
 20
89.3069
 11
143.911
 21
89.4588
  0
LINE
  8
0
 10
143.911
 20
89.4588
 11
144.154
 21
89.6344
  0
LINE
  8
0
 10
144.154
 20
89.6344
 11
144.378
 21
89.834
  0
LINE
  8
0
 10
144.378
 20
89.834
 11
144.581
 21
90.0592
  0
LINE
  8
0
 10
144.581
 20
90.0592
 11
144.76
 21
90.312
  0
LINE
  8
0
 10
144.76
 20
90.312
 11
144.917
 21
90.5923
  0
LINE
  8
0
 10
144.917
 20
90.5923
 11
145.05
 21
90.9
  0
LINE
  8
0
 10
145.05
 20
90.9
 11
145.156
 21
91.2404
  0
LINE
  8
0
 10
145.156
 20
91.2404
 11
145.232
 21
91.6178
  0
LINE
  8
0
 10
145.232
 20
91.6178
 11
145.278
 21
92.0319
  0
LINE
  8
0
 10
145.278
 20
92.0319
 11
145.293
 21
92.483
  0
LINE
  8
0
 10
145.293
 20
92.483
 11
145.288
 21
92.644
  0
LINE
  8
0
 10
145.288
 20
92.644
 11
145.273
 21
92.802
  0
LINE
  8
0
 10
145.273
 20
92.802
 11
145.249
 21
92.957
  0
LINE
  8
0
 10
145.249
 20
92.957
 11
145.215
 21
93.109
  0
LINE
  8
0
 10
145.215
 20
93.109
 11
145.175
 21
93.2588
  0
LINE
  8
0
 10
145.175
 20
93.2588
 11
145.131
 21
93.4073
  0
LINE
  8
0
 10
145.131
 20
93.4073
 11
145.086
 21
93.5543
  0
LINE
  8
0
 10
145.086
 20
93.5543
 11
144.988
 21
93.8446
  0
LINE
  8
0
 10
144.988
 20
93.8446
 11
144.942
 21
93.9885
  0
LINE
  8
0
 10
144.942
 20
93.9885
 11
144.899
 21
94.1316
  0
LINE
  8
0
 10
144.899
 20
94.1316
 11
144.859
 21
94.274
  0
LINE
  8
0
 10
144.859
 20
94.274
 11
144.825
 21
94.4164
  0
LINE
  8
0
 10
144.825
 20
94.4164
 11
144.8
 21
94.5595
  0
LINE
  8
0
 10
144.8
 20
94.5595
 11
144.786
 21
94.7034
  0
LINE
  8
0
 10
144.786
 20
94.7034
 11
144.781
 21
94.848
  0
LINE
  8
0
 10
144.781
 20
94.848
 11
146.573
 21
94.848
  0
LINE
  8
0
 10
146.573
 20
94.848
 11
146.573
 21
85.376
  0
LINE
  8
0
 10
146.573
 20
85.376
 11
139.235
 21
85.376
  0
LINE
  8
0
 10
89.8691
 20
89.948
 11
88.5941
 21
94.848
  0
LINE
  8
0
 10
88.5941
 20
94.848
 11
91.664
 21
94.848
  0
LINE
  8
0
 10
91.664
 20
94.848
 11
91.6374
 21
94.7431
  0
LINE
  8
0
 10
91.6374
 20
94.7431
 11
91.2164
 21
93.1651
  0
LINE
  8
0
 10
91.2164
 20
93.1651
 11
90.4567
 21
90.3363
  0
LINE
  8
0
 10
90.4567
 20
90.3363
 11
90.355
 21
89.948
  0
LINE
  8
0
 10
90.355
 20
89.948
 11
90.112
 21
89.427
  0
LINE
  8
0
 10
90.112
 20
89.427
 11
89.8691
 21
89.948
  0
LINE
  8
0
 10
139.258
 20
91.264
 11
139.258
 21
93.568
  0
LINE
  8
0
 10
139.258
 20
93.568
 11
141.053
 21
93.568
  0
LINE
  8
0
 10
141.053
 20
93.568
 11
141.153
 21
93.5599
  0
LINE
  8
0
 10
141.153
 20
93.5599
 11
141.243
 21
93.5358
  0
LINE
  8
0
 10
141.243
 20
93.5358
 11
141.324
 21
93.4954
  0
LINE
  8
0
 10
141.324
 20
93.4954
 11
141.395
 21
93.439
  0
LINE
  8
0
 10
141.395
 20
93.439
 11
141.457
 21
93.372
  0
LINE
  8
0
 10
141.457
 20
93.372
 11
141.512
 21
93.299
  0
LINE
  8
0
 10
141.512
 20
93.299
 11
141.558
 21
93.22
  0
LINE
  8
0
 10
141.558
 20
93.22
 11
141.597
 21
93.135
  0
LINE
  8
0
 10
141.597
 20
93.135
 11
141.629
 21
93.046
  0
LINE
  8
0
 10
141.629
 20
93.046
 11
141.655
 21
92.954
  0
LINE
  8
0
 10
141.655
 20
92.954
 11
141.675
 21
92.859
  0
LINE
  8
0
 10
141.675
 20
92.859
 11
141.69
 21
92.761
  0
LINE
  8
0
 10
141.69
 20
92.761
 11
141.7
 21
92.6652
  0
LINE
  8
0
 10
141.7
 20
92.6652
 11
141.708
 21
92.5768
  0
LINE
  8
0
 10
141.708
 20
92.5768
 11
141.712
 21
92.4957
  0
LINE
  8
0
 10
141.712
 20
92.4957
 11
141.714
 21
92.422
  0
LINE
  8
0
 10
141.714
 20
92.422
 11
141.712
 21
92.3483
  0
LINE
  8
0
 10
141.712
 20
92.3483
 11
141.708
 21
92.2672
  0
LINE
  8
0
 10
141.708
 20
92.2672
 11
141.7
 21
92.1788
  0
LINE
  8
0
 10
141.7
 20
92.1788
 11
141.69
 21
92.083
  0
LINE
  8
0
 10
141.69
 20
92.083
 11
141.675
 21
91.9846
  0
LINE
  8
0
 10
141.675
 20
91.9846
 11
141.655
 21
91.8882
  0
LINE
  8
0
 10
141.655
 20
91.8882
 11
141.629
 21
91.7941
  0
LINE
  8
0
 10
141.629
 20
91.7941
 11
141.597
 21
91.702
  0
LINE
  8
0
 10
141.597
 20
91.702
 11
141.558
 21
91.6147
  0
LINE
  8
0
 10
141.558
 20
91.6147
 11
141.512
 21
91.534
  0
LINE
  8
0
 10
141.512
 20
91.534
 11
141.457
 21
91.4597
  0
LINE
  8
0
 10
141.457
 20
91.4597
 11
141.395
 21
91.392
  0
LINE
  8
0
 10
141.395
 20
91.392
 11
141.324
 21
91.336
  0
LINE
  8
0
 10
141.324
 20
91.336
 11
141.243
 21
91.296
  0
LINE
  8
0
 10
141.243
 20
91.296
 11
141.153
 21
91.272
  0
LINE
  8
0
 10
141.153
 20
91.272
 11
141.053
 21
91.264
  0
LINE
  8
0
 10
141.053
 20
91.264
 11
139.258
 21
91.264
  0
LINE
  8
0
 10
123.074
 20
87.002
 11
122.766
 21
87.0498
  0
LINE
  8
0
 10
122.766
 20
87.0498
 11
122.492
 21
87.1295
  0
LINE
  8
0
 10
122.492
 20
87.1295
 11
122.252
 21
87.241
  0
LINE
  8
0
 10
122.252
 20
87.241
 11
122.041
 21
87.3797
  0
LINE
  8
0
 10
122.041
 20
87.3797
 11
121.854
 21
87.5408
  0
LINE
  8
0
 10
121.854
 20
87.5408
 11
121.691
 21
87.7242
  0
LINE
  8
0
 10
121.691
 20
87.7242
 11
121.551
 21
87.93
  0
LINE
  8
0
 10
121.551
 20
87.93
 11
121.435
 21
88.1561
  0
LINE
  8
0
 10
121.435
 20
88.1561
 11
121.339
 21
88.3995
  0
LINE
  8
0
 10
121.339
 20
88.3995
 11
121.264
 21
88.6601
  0
LINE
  8
0
 10
121.264
 20
88.6601
 11
121.21
 21
88.938
  0
LINE
  8
0
 10
121.21
 20
88.938
 11
121.172
 21
89.2278
  0
LINE
  8
0
 10
121.172
 20
89.2278
 11
121.145
 21
89.5243
  0
LINE
  8
0
 10
121.145
 20
89.5243
 11
121.129
 21
89.8273
  0
LINE
  8
0
 10
121.129
 20
89.8273
 11
121.123
 21
90.137
  0
LINE
  8
0
 10
121.123
 20
90.137
 11
121.137
 21
90.5455
  0
LINE
  8
0
 10
121.137
 20
90.5455
 11
121.18
 21
90.925
  0
LINE
  8
0
 10
121.18
 20
90.925
 11
121.25
 21
91.2755
  0
LINE
  8
0
 10
121.25
 20
91.2755
 11
121.349
 21
91.597
  0
LINE
  8
0
 10
121.349
 20
91.597
 11
121.47
 21
91.8906
  0
LINE
  8
0
 10
121.47
 20
91.8906
 11
121.605
 21
92.1573
  0
LINE
  8
0
 10
121.605
 20
92.1573
 11
121.756
 21
92.3971
  0
LINE
  8
0
 10
121.756
 20
92.3971
 11
121.922
 21
92.61
  0
LINE
  8
0
 10
121.922
 20
92.61
 11
122.1
 21
92.7966
  0
LINE
  8
0
 10
122.1
 20
92.7966
 11
122.287
 21
92.9563
  0
LINE
  8
0
 10
122.287
 20
92.9563
 11
122.483
 21
93.0891
  0
LINE
  8
0
 10
122.483
 20
93.0891
 11
122.687
 21
93.195
  0
LINE
  8
0
 10
122.687
 20
93.195
 11
122.893
 21
93.2764
  0
LINE
  8
0
 10
122.893
 20
93.2764
 11
123.092
 21
93.3345
  0
LINE
  8
0
 10
123.092
 20
93.3345
 11
123.286
 21
93.3694
  0
LINE
  8
0
 10
123.286
 20
93.3694
 11
123.474
 21
93.381
  0
LINE
  8
0
 10
123.474
 20
93.381
 11
123.807
 21
93.3639
  0
LINE
  8
0
 10
123.807
 20
93.3639
 11
124.111
 21
93.3127
  0
LINE
  8
0
 10
124.111
 20
93.3127
 11
124.386
 21
93.2274
  0
LINE
  8
0
 10
124.386
 20
93.2274
 11
124.632
 21
93.108
  0
LINE
  8
0
 10
124.632
 20
93.108
 11
124.853
 21
92.9608
  0
LINE
  8
0
 10
124.853
 20
92.9608
 11
125.052
 21
92.791
  0
LINE
  8
0
 10
125.052
 20
92.791
 11
125.23
 21
92.5988
  0
LINE
  8
0
 10
125.23
 20
92.5988
 11
125.385
 21
92.384
  0
LINE
  8
0
 10
125.385
 20
92.384
 11
125.52
 21
92.1508
  0
LINE
  8
0
 10
125.52
 20
92.1508
 11
125.633
 21
91.9023
  0
LINE
  8
0
 10
125.633
 20
91.9023
 11
125.726
 21
91.6383
  0
LINE
  8
0
 10
125.726
 20
91.6383
 11
125.797
 21
91.359
  0
LINE
  8
0
 10
125.797
 20
91.359
 11
125.85
 21
91.0706
  0
LINE
  8
0
 10
125.85
 20
91.0706
 11
125.889
 21
90.7785
  0
LINE
  8
0
 10
125.889
 20
90.7785
 11
125.911
 21
90.4826
  0
LINE
  8
0
 10
125.911
 20
90.4826
 11
125.919
 21
90.183
  0
LINE
  8
0
 10
125.919
 20
90.183
 11
125.912
 21
89.8633
  0
LINE
  8
0
 10
125.912
 20
89.8633
 11
125.892
 21
89.552
  0
LINE
  8
0
 10
125.892
 20
89.552
 11
125.857
 21
89.2493
  0
LINE
  8
0
 10
125.857
 20
89.2493
 11
125.809
 21
88.955
  0
LINE
  8
0
 10
125.809
 20
88.955
 11
125.743
 21
88.6745
  0
LINE
  8
0
 10
125.743
 20
88.6745
 11
125.656
 21
88.412
  0
LINE
  8
0
 10
125.656
 20
88.412
 11
125.546
 21
88.1675
  0
LINE
  8
0
 10
125.546
 20
88.1675
 11
125.415
 21
87.941
  0
LINE
  8
0
 10
125.415
 20
87.941
 11
125.26
 21
87.7348
  0
LINE
  8
0
 10
125.26
 20
87.7348
 11
125.08
 21
87.5503
  0
LINE
  8
0
 10
125.08
 20
87.5503
 11
124.875
 21
87.3873
  0
LINE
  8
0
 10
124.875
 20
87.3873
 11
124.644
 21
87.246
  0
LINE
  8
0
 10
124.644
 20
87.246
 11
124.385
 21
87.1323
  0
LINE
  8
0
 10
124.385
 20
87.1323
 11
124.094
 21
87.051
  0
LINE
  8
0
 10
124.094
 20
87.051
 11
123.771
 21
87.0023
  0
LINE
  8
0
 10
123.771
 20
87.0023
 11
123.416
 21
86.986
  0
LINE
  8
0
 10
123.416
 20
86.986
 11
123.074
 21
87.002
  0
LINE
  8
0
 10
86.4401
 20
85.376
 11
86.4401
 21
91.898
  0
LINE
  8
0
 10
86.4401
 20
91.898
 11
86.6141
 21
92.06
  0
LINE
  8
0
 10
86.6141
 20
92.06
 11
88.4791
 21
85.376
  0
LINE
  8
0
 10
88.4791
 20
85.376
 11
86.4401
 21
85.376
  0
LINE
  8
0
 10
91.699
 20
85.376
 11
93.46
 21
92.06
  0
LINE
  8
0
 10
93.46
 20
92.06
 11
93.622
 21
91.898
  0
LINE
  8
0
 10
93.622
 20
91.898
 11
93.622
 21
85.376
  0
LINE
  8
0
 10
93.622
 20
85.376
 11
91.699
 21
85.376
  0
LINE
  8
0
 10
104.642
 20
85.376
 11
104.642
 21
90.438
  0
LINE
  8
0
 10
104.642
 20
90.438
 11
104.967
 21
90.276
  0
LINE
  8
0
 10
104.967
 20
90.276
 11
108.338
 21
85.376
  0
LINE
  8
0
 10
108.338
 20
85.376
 11
104.642
 21
85.376
  0
ENDSEC
  0
SECTION
  2
OBJECTS
  0
DICTIONARY
  0
ENDSEC
  0
EOF
